<svg width="24" height="24" viewBox="0 0 24 24" fill="none" xmlns="http://www.w3.org/2000/svg">
<path fill-rule="evenodd" clip-rule="evenodd" d="M6.09587 9.99774C6.5978 10.3022 7.24895 10.5529 8 10.7274V10.9898V12C8 12.5523 8.44772 13 9 13C9.43767 13 9.80966 12.7188 9.94522 12.3273C9.98072 12.2247 10 12.1146 10 12V10.9898C10.1647 10.9965 10.3315 11 10.5 11C10.6685 11 10.8353 10.9965 11 10.9898C12.5956 10.9244 13.9948 10.5493 14.9041 9.99774C14.9359 9.99924 14.9679 10 15 10C15.3643 10 15.7058 9.90261 16 9.73244C16.0403 9.70911 16.0797 9.68442 16.1182 9.65843C16.6502 9.29902 17 8.69036 17 8C17 7.25506 16.5927 6.60525 15.9887 6.26108C15.6971 6.09492 15.3596 6 15 6C14.618 6 14.261 6.1071 13.9574 6.29291C13.9855 6.19731 14 6.0995 14 6C14 5.4799 13.6029 5.00617 12.9521 4.65045C12.2208 4.25071 11.1689 4 10 4C7.79086 4 6 4.89543 6 6C4.89543 6 4 6.89543 4 8C4 8.74028 4.4022 9.38663 5 9.73244C5.29417 9.90261 5.63571 10 6 10C6.03214 10 6.0641 9.99924 6.09587 9.99774ZM3 10.6458C2.37764 9.94069 2 9.01445 2 8C2 6.3136 3.04361 4.87094 4.52024 4.28263C4.99631 3.56416 5.71068 3.08017 6.27715 2.79693C7.33324 2.26888 8.65226 2 10 2C11.3477 2 12.6668 2.26888 13.7229 2.79693C14.2143 3.04268 14.8172 3.43955 15.2791 4.00959C17.358 4.15287 19 5.88468 19 8C19 8.72857 18.8052 9.41165 18.4649 10H19.5C20.8807 10 22 11.1193 22 12.5V15.5C22 16.8807 20.8807 18 19.5 18H18V19C18 20.6569 16.6569 22 15 22H6C4.34315 22 3 20.6569 3 19V10.6458ZM16 11.874V18V19C16 19.5523 15.5523 20 15 20H6C5.44772 20 5 19.5523 5 19V11.874C5.17664 11.9194 5.358 11.9531 5.54319 11.9742C5.69335 12.049 5.84773 12.1194 6.00564 12.1855C6.10142 13.7559 7.40542 15 9 15C10.3304 15 11.4585 14.134 11.8514 12.935C13.1789 12.8057 14.4341 12.4839 15.4568 11.9742C15.642 11.9531 15.8234 11.9194 16 11.874ZM18 12V16H19.5C19.7761 16 20 15.7761 20 15.5V12.5C20 12.2239 19.7761 12 19.5 12H18Z" fill="currentColor"/>
</svg>
