<svg width="16" height="15" viewBox="0 0 16 15" fill="none" xmlns="http://www.w3.org/2000/svg">
<path d="M7.16032 11.4999V10.1211H8.84961V11.4999H7.16032Z" fill="currentColor"/>
<path d="M7.14893 4.72725C7.11759 4.14392 7.08227 3.73054 7.04427 3.49988H8.95557C8.92423 3.74921 8.87624 4.26459 8.85091 4.72725L8.68831 8.14929L8.68704 8.18104C8.66498 8.73267 8.66488 8.73518 8.66488 8.87325C8.66311 9.01473 8.67101 9.15617 8.68831 9.29659H7.32422C7.32591 9.26973 7.32796 9.24463 7.32989 9.22106C7.33327 9.17968 7.33626 9.14303 7.33626 9.1099V9.10128C7.33665 9.09518 7.33704 9.08919 7.33742 9.0833C7.34286 8.99901 7.347 8.93482 7.347 8.86316C7.347 8.75509 7.34686 8.75268 7.31395 8.19082L7.31152 8.14929L7.14893 4.72725Z" fill="currentColor"/>
<path fill-rule="evenodd" clip-rule="evenodd" d="M15.3332 7.49984C15.3332 11.5499 12.0499 14.8332 7.99984 14.8332C3.94975 14.8332 0.666504 11.5499 0.666504 7.49984C0.666504 3.44975 3.94975 0.166504 7.99984 0.166504C12.0499 0.166504 15.3332 3.44975 15.3332 7.49984ZM13.9998 7.49984C13.9998 10.8135 11.3135 13.4998 7.99984 13.4998C4.68613 13.4998 1.99984 10.8135 1.99984 7.49984C1.99984 4.18613 4.68613 1.49984 7.99984 1.49984C11.3135 1.49984 13.9998 4.18613 13.9998 7.49984Z" fill="currentColor"/>
</svg>
