<svg width="24" height="24" viewBox="0 0 24 24" fill="none" xmlns="http://www.w3.org/2000/svg">
<path d="M8.51453 18.9018H2.95155C2.7235 18.9031 2.50176 18.8269 2.32264 18.6857C2.14352 18.5446 2.01761 18.3469 1.96552 18.1248C1.91413 17.9058 1.93919 17.6759 2.03651 17.473C2.13382 17.2702 2.29751 17.1068 2.5005 17.0098C3.47333 16.3659 4.18076 15.3921 4.4925 14.2678C4.6622 13.5931 4.67522 12.8884 4.53053 12.2078C4.48419 11.902 4.4548 11.5939 4.44251 11.2848V11.2658C4.38189 9.39547 4.97254 7.56207 6.11353 6.07882C6.81155 5.22737 7.66974 4.52106 8.63953 3.99984C8.75271 3.2349 9.12892 2.53332 9.7035 2.01583C10.3612 1.44292 11.2063 1.13153 12.0785 1.14083H12.0845C13.0216 1.13257 13.9242 1.49401 14.5965 2.14681C15.0951 2.64975 15.4188 3.29978 15.5195 4.00081C16.4885 4.52241 17.346 5.22874 18.0435 6.07985C19.1842 7.56286 19.7744 9.3959 19.7135 11.2658V11.2748C19.7036 11.5967 19.6739 11.9176 19.6245 12.2358C19.483 12.9073 19.496 13.6021 19.6625 14.2678C19.9732 15.3907 20.6788 16.3637 21.6495 17.0078C21.851 17.1086 22.0125 17.2744 22.108 17.4784C22.2034 17.6824 22.2273 17.9126 22.1755 18.1319C22.1237 18.3512 21.9993 18.5465 21.8225 18.6863C21.6457 18.8261 21.4269 18.902 21.2015 18.9018H15.8885C15.7481 19.7792 15.2998 20.5778 14.624 21.1547C13.9482 21.7315 13.089 22.0489 12.2005 22.0498C11.3123 22.0484 10.4537 21.7309 9.77827 21.1541C9.10288 20.5773 8.65492 19.7788 8.51453 18.9018ZM10.9765 19.5409C11.1369 19.7024 11.3277 19.8305 11.538 19.9177C11.7483 20.0049 11.9739 20.0495 12.2015 20.0488C12.5584 20.0486 12.9064 19.9383 13.1983 19.7331C13.4901 19.5278 13.7116 19.2375 13.8325 18.9018H10.5705C10.6568 19.1423 10.7955 19.3606 10.9765 19.5409ZM10.5875 4.62984C10.5874 4.8155 10.5357 4.99746 10.438 5.15535C10.3403 5.31325 10.2006 5.44083 10.0345 5.52382C9.12652 5.94639 8.32075 6.56044 7.67249 7.32381C6.81529 8.44888 6.37938 9.83876 6.4405 11.2519C6.45125 11.4827 6.475 11.7127 6.51154 11.9408C6.70189 12.9219 6.6601 13.9338 6.38953 14.8958C6.1547 15.6053 5.8218 16.2785 5.40052 16.8958H18.7525C18.3317 16.2784 17.9991 15.6053 17.7645 14.8958C17.4965 13.9437 17.4544 12.9421 17.6415 11.9708C17.6784 11.7343 17.7024 11.496 17.7135 11.2569C17.7753 9.84229 17.339 8.45085 16.4805 7.32485C15.8329 6.56078 15.027 5.94655 14.1185 5.5248C13.9514 5.44149 13.8108 5.31308 13.7129 5.15401C13.615 4.99494 13.5636 4.81162 13.5645 4.62484C13.5754 4.43015 13.5468 4.23526 13.4805 4.0519C13.4141 3.86854 13.3114 3.70049 13.1785 3.55782C12.8813 3.27876 12.486 3.12819 12.0785 3.13881H12.0725C11.8733 3.12622 11.6737 3.15637 11.4871 3.22725C11.3005 3.29814 11.1312 3.40814 10.9905 3.54982C10.8504 3.69175 10.7423 3.86197 10.6733 4.04909C10.6043 4.23621 10.5761 4.43594 10.5905 4.63485L10.5875 4.62984Z" fill="#16AB89"/>
</svg>
