<svg width="46" height="34" viewBox="0 0 46 34" fill="none" xmlns="http://www.w3.org/2000/svg">
<path d="M1 17C1 8.16344 8.16344 1 17 1H45V33H17C8.16344 33 1 25.8366 1 17Z" fill="white"/>
<path d="M1 17C1 8.16344 8.16344 1 17 1H45V33H17C8.16344 33 1 25.8366 1 17Z" stroke="#16AB89"/>
<path d="M17.4 27.0008C16.7635 27.0008 16.153 26.748 15.7029 26.2979C15.2528 25.8478 15 25.2373 15 24.6008V11.4008C15 10.7643 15.2528 10.1538 15.7029 9.70375C16.153 9.25367 16.7635 9.00078 17.4 9.00078H18.9994V8.0014C18.9994 7.87015 19.0253 7.74017 19.0755 7.61891C19.1257 7.49766 19.1994 7.38747 19.2922 7.29466C19.385 7.20185 19.4951 7.12825 19.6164 7.07802C19.7376 7.02779 19.8676 7.00195 19.9989 7.00195C20.1301 7.00195 20.2601 7.02779 20.3813 7.07802C20.5026 7.12825 20.6128 7.20185 20.7056 7.29466C20.7984 7.38747 20.872 7.49766 20.9223 7.61891C20.9725 7.74017 20.9983 7.87015 20.9983 8.0014V9.00078H28.9989V8.0014C28.9989 7.87015 29.0247 7.74017 29.075 7.61891C29.1252 7.49766 29.1987 7.38747 29.2915 7.29466C29.3843 7.20185 29.4945 7.12825 29.6158 7.07802C29.737 7.02779 29.8671 7.00195 29.9983 7.00195C30.1296 7.00195 30.2595 7.02779 30.3808 7.07802C30.502 7.12825 30.6122 7.20185 30.705 7.29466C30.7978 7.38747 30.8714 7.49766 30.9216 7.61891C30.9718 7.74017 30.9977 7.87015 30.9977 8.0014V9.00078H32.5972C33.2337 9.00078 33.8441 9.25367 34.2942 9.70375C34.7443 10.1538 34.9971 10.7643 34.9971 11.4008V24.6008C34.9971 25.2373 34.7443 25.8478 34.2942 26.2979C33.8441 26.748 33.2337 27.0008 32.5972 27.0008H17.4ZM17.0006 24.6008C17.0006 24.7067 17.0426 24.8083 17.1175 24.8832C17.1924 24.9582 17.2941 25.0002 17.4 25.0002H32.6006C32.7066 25.0002 32.8081 24.9582 32.883 24.8832C32.9579 24.8083 33 24.7067 33 24.6008V16.5008H17.0006V24.6008ZM33 14.5002V11.4008C33 11.2948 32.9579 11.1933 32.883 11.1184C32.8081 11.0435 32.7066 11.0014 32.6006 11.0014H31.0011C31.0011 11.2665 30.8959 11.5206 30.7085 11.7081C30.521 11.8955 30.2667 12.0008 30.0017 12.0008C29.7366 12.0008 29.4824 11.8955 29.295 11.7081C29.1076 11.5206 29.0023 11.2665 29.0023 11.0014H21C21 11.2665 20.8947 11.5206 20.7072 11.7081C20.5198 11.8955 20.2656 12.0008 20.0006 12.0008C19.7355 12.0008 19.4813 11.8955 19.2939 11.7081C19.1064 11.5206 19.0011 11.2665 19.0011 11.0014H17.4017C17.2958 11.0014 17.1942 11.0435 17.1193 11.1184C17.0444 11.1933 17.0023 11.2948 17.0023 11.4008V14.5002H33Z" fill="#16AB89"/>
</svg>