<svg width="20" height="21" viewBox="0 0 20 21" fill="none" xmlns="http://www.w3.org/2000/svg">
<path fill-rule="evenodd" clip-rule="evenodd" d="M4.16602 3.62533C4.16602 3.16509 4.53912 2.79199 4.99935 2.79199H7.08268C7.54292 2.79199 7.91602 3.16509 7.91602 3.62533C7.91602 4.08556 7.54292 4.45866 7.08268 4.45866H4.99935C4.53912 4.45866 4.16602 4.08556 4.16602 3.62533ZM8.46257 4.2221C8.77312 3.60099 9.40794 3.20866 10.1023 3.20866H13.2297C13.9241 3.20866 14.5589 3.60099 14.8694 4.2221L15.1961 4.87533H16.3327C17.4373 4.87533 18.3327 5.77076 18.3327 6.87533V16.2087C18.3327 17.3132 17.4373 18.2087 16.3327 18.2087H3.66602C2.56145 18.2087 1.66602 17.3132 1.66602 16.2087V6.87533C1.66602 5.77075 2.56145 4.87533 3.66602 4.87533H8.13596L8.46257 4.2221ZM9.16602 6.54199L9.95328 4.96746C9.98152 4.91099 10.0393 4.87533 10.1023 4.87533H13.2297C13.2928 4.87533 13.3505 4.91099 13.3788 4.96746L14.166 6.54199H16.3327C16.5168 6.54199 16.666 6.69123 16.666 6.87533V16.2087C16.666 16.3927 16.5168 16.542 16.3327 16.542H3.66602C3.48192 16.542 3.33268 16.3927 3.33268 16.2087V6.87533C3.33268 6.69123 3.48192 6.54199 3.66602 6.54199H9.16602ZM11.666 11.542C11.666 12.4625 10.9198 13.2087 9.99935 13.2087C9.07887 13.2087 8.33268 12.4625 8.33268 11.542C8.33268 10.6215 9.07887 9.87533 9.99935 9.87533C10.9198 9.87533 11.666 10.6215 11.666 11.542ZM13.3327 11.542C13.3327 13.3829 11.8403 14.8753 9.99935 14.8753C8.1584 14.8753 6.66602 13.3829 6.66602 11.542C6.66602 9.70104 8.1584 8.20866 9.99935 8.20866C11.8403 8.20866 13.3327 9.70104 13.3327 11.542Z" fill="#606163"/>
</svg>
