<svg width="56" height="56" viewBox="0 0 56 56" fill="none" xmlns="http://www.w3.org/2000/svg">
<g clip-path="url(#clip0_4485_68034)">
<path fill-rule="evenodd" clip-rule="evenodd" d="M22.375 10.5C16.2999 10.5 11.375 15.4249 11.375 21.5V24.7536C10.8205 24.5886 10.2331 24.5 9.625 24.5C6.24226 24.5 3.5 27.2423 3.5 30.625C3.5 34.0077 6.24226 36.75 9.625 36.75C10.0421 36.75 10.4495 36.7083 10.8433 36.6288C10.6215 37.2101 10.5 37.8409 10.5 38.5C10.5 41.3995 12.8505 43.75 15.75 43.75C18.6495 43.75 21 41.3995 21 38.5C21 37.8864 20.8947 37.2974 20.7013 36.75H35.2987C35.1053 37.2974 35 37.8864 35 38.5C35 41.3995 37.3505 43.75 40.25 43.75C43.1495 43.75 45.5 41.3995 45.5 38.5C45.5 37.8409 45.3785 37.2101 45.1567 36.6288C45.5505 36.7083 45.9579 36.75 46.375 36.75C49.7577 36.75 52.5 34.0077 52.5 30.625C52.5 27.2423 49.7577 24.5 46.375 24.5C45.7669 24.5 45.1795 24.5886 44.625 24.7536V21.5C44.625 15.4249 39.7001 10.5 33.625 10.5H22.375Z" fill="white"/>
<path d="M46.6206 22.1355C45.2758 18.2709 42.7614 14.9207 39.4262 12.5499C36.091 10.1791 32.1005 8.90527 28.0085 8.90527C23.9165 8.90527 19.9261 10.1791 16.5909 12.5499C13.2557 14.9207 10.7412 18.2709 9.39638 22.1355C7.26284 22.413 5.30192 23.4536 3.87621 25.0649C2.4505 26.6762 1.65644 28.7493 1.64086 30.9007C1.62528 33.0522 2.38923 35.1365 3.79146 36.7683C5.19368 38.4001 7.13933 39.469 9.26863 39.7773L9.79364 39.8053C9.98456 41.3603 10.7352 42.7925 11.9052 43.8343C13.0752 44.8762 14.5845 45.4564 16.1511 45.4664C17.7177 45.4765 19.2344 44.9158 20.4177 43.8891C21.601 42.8624 22.37 41.4399 22.5809 39.8875H33.4309C33.64 41.4422 34.4088 42.8672 35.5934 43.8955C36.7779 44.9238 38.2968 45.4848 39.8654 45.4735C41.4339 45.4621 42.9445 44.8791 44.114 43.8337C45.2835 42.7883 46.0316 41.3523 46.2181 39.7948L46.9269 39.758C49.0336 39.4083 50.9446 38.3134 52.3117 36.6727C53.6787 35.032 54.4108 32.9548 54.3745 30.8195C54.3382 28.6842 53.536 26.6331 52.1141 25.0397C50.6921 23.4464 48.745 22.417 46.6276 22.139M16.1916 42.1415C15.5686 42.1415 14.9596 41.9568 14.4416 41.6107C13.9236 41.2645 13.5198 40.7726 13.2814 40.197C13.043 39.6214 12.9806 38.988 13.1022 38.377C13.2237 37.766 13.5237 37.2047 13.9642 36.7642C14.4048 36.3236 14.9661 36.0236 15.5771 35.9021C16.1881 35.7805 16.8215 35.8429 17.3971 36.0813C17.9727 36.3197 18.4646 36.7235 18.8108 37.2415C19.1569 37.7595 19.3416 38.3685 19.3416 38.9915C19.3416 39.827 19.0098 40.6282 18.419 41.2189C17.8283 41.8097 17.0271 42.1415 16.1916 42.1415ZM39.8166 42.1415C39.1936 42.1415 38.5846 41.9568 38.0666 41.6107C37.5486 41.2645 37.1448 40.7726 36.9064 40.197C36.668 39.6214 36.6056 38.988 36.7272 38.377C36.8487 37.766 37.1487 37.2047 37.5892 36.7642C38.0298 36.3236 38.5911 36.0236 39.2021 35.9021C39.8131 35.7805 40.4465 35.8429 41.0221 36.0813C41.5977 36.3197 42.0896 36.7235 42.4358 37.2415C42.7819 37.7595 42.9666 38.3685 42.9666 38.9915C42.9639 39.8261 42.6311 40.6257 42.041 41.2159C41.4508 41.806 40.6512 42.1388 39.8166 42.1415ZM46.5716 36.4558L45.7929 36.4925C45.2978 35.3088 44.4621 34.2988 43.392 33.5908C42.3219 32.8828 41.0655 32.5087 39.7824 32.516C38.4993 32.5234 37.2473 32.9117 36.1853 33.6319C35.1233 34.352 34.2992 35.3715 33.8176 36.5608H22.1906C21.7084 35.3709 20.8833 34.3512 19.8202 33.6314C18.757 32.9115 17.5039 32.524 16.22 32.518C14.9361 32.512 13.6794 32.8878 12.6096 33.5977C11.5398 34.3076 10.7052 35.3195 10.2119 36.5048L9.63089 36.4768C8.27574 36.2533 7.05054 35.5381 6.18962 34.468C5.32869 33.3979 4.89247 32.0479 4.96438 30.6764C5.0363 29.3048 5.6113 28.0079 6.57941 27.0337C7.54753 26.0595 8.8408 25.4763 10.2119 25.3958L11.8831 25.296L12.3854 23.6983C13.4309 20.3735 15.5098 17.4689 18.3197 15.4069C21.1296 13.3449 24.5241 12.2331 28.0094 12.2331C31.4947 12.2331 34.8892 13.3449 37.6991 15.4069C40.509 17.4689 42.5879 20.3735 43.6334 23.6983L44.1304 25.2995L45.8034 25.4028C47.1473 25.5011 48.4107 26.0808 49.3618 27.0354C50.3129 27.99 50.8879 29.2555 50.9813 30.5998C51.0746 31.9441 50.6801 33.277 49.8702 34.3539C49.0602 35.4308 47.8891 36.1796 46.5716 36.4628" fill="#16AB89"/>
<path fill-rule="evenodd" clip-rule="evenodd" d="M19.0955 24.5146C19.7319 23.7872 20.8375 23.7135 21.5649 24.35L24.9994 27.3552L33.175 19.1796C33.8584 18.4961 34.9665 18.4961 35.6499 19.1796C36.3333 19.863 36.3333 20.971 35.6499 21.6544L26.3166 30.9878C25.6651 31.6392 24.6201 31.674 23.9268 31.0673L19.2601 26.984C18.5327 26.3476 18.459 25.242 19.0955 24.5146Z" fill="#16AB89"/>
</g>
<defs>
<clipPath id="clip0_4485_68034">
<rect width="56" height="56" fill="white"/>
</clipPath>
</defs>
</svg>
