<svg width="56" height="56" viewBox="0 0 56 56" fill="none"  xmlns="http://www.w3.org/2000/svg">
<g clip-path="url(#clip0_4485_67953)">
<path d="M46.6206 22.1307C45.2758 18.266 42.7614 14.9158 39.4262 12.545C36.091 10.1742 32.1005 8.90039 28.0085 8.90039C23.9165 8.90039 19.9261 10.1742 16.5909 12.545C13.2557 14.9158 10.7412 18.266 9.39638 22.1307C7.26284 22.4081 5.30192 23.4487 3.87621 25.06C2.4505 26.6713 1.65644 28.7444 1.64086 30.8958C1.62528 33.0473 2.38923 35.1316 3.79146 36.7634C5.19368 38.3952 7.13933 39.4641 9.26863 39.7724L9.79363 39.8004C9.98456 41.3554 10.7352 42.7876 11.9052 43.8295C13.0752 44.8713 14.5845 45.4515 16.1511 45.4616C17.7177 45.4717 19.2344 44.9109 20.4177 43.8842C21.601 42.8575 22.37 41.435 22.5809 39.8827H33.4309C33.64 41.4373 34.4088 42.8623 35.5934 43.8906C36.7779 44.9189 38.2968 45.48 39.8654 45.4686C41.4339 45.4572 42.9445 44.8742 44.114 43.8288C45.2835 42.7834 46.0316 41.3474 46.2181 39.7899L46.9269 39.7532C49.0336 39.4035 50.9446 38.3085 52.3117 36.6678C53.6787 35.0271 54.4108 32.9499 54.3745 30.8146C54.3382 28.6794 53.536 26.6282 52.1141 25.0349C50.6921 23.4415 48.745 22.4121 46.6276 22.1342M16.1916 42.1367C15.5686 42.1367 14.9596 41.9519 14.4416 41.6058C13.9236 41.2597 13.5198 40.7677 13.2814 40.1921C13.043 39.6165 12.9806 38.9832 13.1022 38.3721C13.2237 37.7611 13.5237 37.1998 13.9642 36.7593C14.4048 36.3187 14.9661 36.0187 15.5771 35.8972C16.1881 35.7757 16.8215 35.838 17.3971 36.0764C17.9727 36.3149 18.4646 36.7186 18.8108 37.2366C19.1569 37.7546 19.3416 38.3637 19.3416 38.9867C19.3416 39.8221 19.0098 40.6233 18.419 41.2141C17.8283 41.8048 17.0271 42.1367 16.1916 42.1367ZM39.8166 42.1367C39.1936 42.1367 38.5846 41.9519 38.0666 41.6058C37.5486 41.2597 37.1448 40.7677 36.9064 40.1921C36.668 39.6165 36.6056 38.9832 36.7272 38.3721C36.8487 37.7611 37.1487 37.1998 37.5892 36.7593C38.0298 36.3187 38.5911 36.0187 39.2021 35.8972C39.8131 35.7757 40.4465 35.838 41.0221 36.0764C41.5977 36.3149 42.0896 36.7186 42.4358 37.2366C42.7819 37.7546 42.9666 38.3637 42.9666 38.9867C42.9639 39.8212 42.6311 40.6209 42.041 41.211C41.4508 41.8011 40.6512 42.1339 39.8166 42.1367ZM46.5716 36.4509L45.7929 36.4877C45.2978 35.3039 44.4621 34.2939 43.392 33.5859C42.3219 32.8779 41.0655 32.5039 39.7824 32.5112C38.4993 32.5185 37.2473 32.9069 36.1853 33.627C35.1233 34.3471 34.2992 35.3666 33.8176 36.5559H22.1906C21.7084 35.366 20.8833 34.3464 19.8202 33.6265C18.757 32.9066 17.5039 32.5191 16.22 32.5131C14.9361 32.5071 13.6794 32.8829 12.6096 33.5928C11.5398 34.3027 10.7052 35.3146 10.2119 36.4999L9.63088 36.4719C8.27574 36.2484 7.05054 35.5332 6.18962 34.4631C5.32869 33.393 4.89247 32.0431 4.96438 30.6715C5.0363 29.2999 5.6113 28.003 6.57941 27.0288C7.54753 26.0546 8.8408 25.4714 10.2119 25.3909L11.8831 25.2912L12.3854 23.6934C13.4309 20.3686 15.5098 17.464 18.3197 15.402C21.1296 13.34 24.5241 12.2282 28.0094 12.2282C31.4947 12.2282 34.8892 13.34 37.6991 15.402C40.509 17.464 42.5879 20.3686 43.6334 23.6934L44.1304 25.2947L45.8034 25.3979C47.1473 25.4963 48.4107 26.0759 49.3618 27.0305C50.3129 27.9851 50.8879 29.2506 50.9813 30.5949C51.0746 31.9392 50.6801 33.2721 49.8702 34.349C49.0602 35.426 47.8891 36.1747 46.5716 36.4579" fill="#16AB89"/>
</g>
<defs>
<clipPath id="clip0_4485_67953">
<rect width="56" height="56" fill="white"/>
</clipPath>
</defs>
</svg>
