<svg width="21" height="20" viewBox="0 0 21 20" fill="none" xmlns="http://www.w3.org/2000/svg">
<path fill-rule="evenodd" clip-rule="evenodd" d="M5.26096 17.5H4.14515C3.88704 17.494 3.64068 17.3809 3.45638 17.1838C3.27207 16.9867 3.16367 16.7203 3.15318 16.439V14.9954C2.71244 14.01 2.4589 12.9375 2.4078 11.8425C2.39843 10.7135 2.66078 9.60155 3.16866 8.61766L3.28051 8.39634C3.81314 7.31222 4.48285 5.96302 5.16748 4.7126C5.7839 3.606 6.26837 3.00892 7.38935 2.7876C8.52656 2.57327 9.48464 2.5 10.8337 2.5C12.1827 2.5 13.1408 2.57327 14.278 2.7876C15.3989 3.00892 15.8834 3.606 16.4998 4.7126C17.1845 5.96302 17.8542 7.31222 18.3868 8.39634L18.4987 8.61766C19.0065 9.60155 19.2689 10.7135 19.2595 11.8425C19.2084 12.9375 18.9549 14.01 18.5141 14.9954V16.439C18.5036 16.7203 18.3952 16.9867 18.2109 17.1838C18.0266 17.3809 17.7803 17.494 17.5222 17.5H16.4064C16.1373 17.5 15.8794 17.3835 15.6891 17.176C15.4989 16.9687 15.392 16.6874 15.392 16.394V15.8345H6.27527V16.394C6.27527 16.6874 6.16841 16.9687 5.97818 17.176C5.78795 17.3835 5.52998 17.5 5.26096 17.5ZM10.8337 4.16667C10.0301 4.16667 8.60275 4.22389 7.49852 4.46045C6.96515 4.58879 6.75724 4.73773 6.22931 5.85298C5.83978 6.67575 5.50696 7.49479 5.20866 8.24063C5.20866 8.24063 7.49852 8.75 10.8337 8.75C14.0479 8.75 16.4587 8.24063 16.4587 8.24063C16.1604 7.49479 15.8275 6.67575 15.438 5.85298C14.9101 4.73773 14.7022 4.58879 14.1688 4.46045C13.0646 4.22389 11.6372 4.16667 10.8337 4.16667ZM5.41699 13.3333C6.10735 13.3333 6.66699 12.7736 6.66699 12.0833C6.66699 11.3929 6.10735 10.8333 5.41699 10.8333C4.72664 10.8333 4.16699 11.3929 4.16699 12.0833C4.16699 12.7736 4.72664 13.3333 5.41699 13.3333ZM16.2503 13.3333C16.9407 13.3333 17.5003 12.7736 17.5003 12.0833C17.5003 11.3929 16.9407 10.8333 16.2503 10.8333C15.56 10.8333 15.0003 11.3929 15.0003 12.0833C15.0003 12.7736 15.56 13.3333 16.2503 13.3333Z"
 fill="currentColor"/>
<path d="M2.29143 5.88487H4.186L3.11765 8.05812C2.21972 8.05812 1.66699 7.64922 1.66699 6.98026V6.57073C1.66746 6.38985 1.7332 6.21643 1.85008 6.08806C1.96697 5.95969 2.12554 5.8867 2.29143 5.88487Z" fill="currentColor"/>
<path d="M17.4813 5.88487H19.3759C19.5418 5.8867 19.7003 5.95969 19.8172 6.08806C19.9341 6.21643 19.9999 6.38985 20.0003 6.57073V6.98026C20.0003 7.64922 19.4476 8.05812 18.5497 8.05812L17.4813 5.88487Z" fill="currentColor"/>
</svg>
