<svg width="20" height="20" viewBox="0 0 20 20" fill="none" xmlns="http://www.w3.org/2000/svg">
<path d="M3.57596 7.24524L9.40512 13.9244C9.48298 14.0027 9.57576 14.0644 9.67797 14.1061C9.78019 14.1478 9.88974 14.1685 10.0001 14.1669C10.1105 14.1685 10.22 14.1478 10.3223 14.1061C10.4245 14.0644 10.5172 14.0027 10.5951 13.9244L16.4284 7.24524C16.5823 7.0901 16.6687 6.88047 16.6687 6.66195C16.6687 6.44343 16.5823 6.23375 16.4284 6.0786C16.352 6.00177 16.2611 5.94077 16.161 5.89916C16.0609 5.85755 15.9535 5.83612 15.8451 5.83609C15.7367 5.83612 15.6294 5.85755 15.5293 5.89916C15.4292 5.94077 15.3383 6.00177 15.2618 6.0786L10.0034 12.1853L4.74427 6.0786C4.66783 6.0017 4.57695 5.94065 4.47684 5.89901C4.37673 5.85736 4.26938 5.83594 4.16096 5.83594C4.05253 5.83594 3.94516 5.85736 3.84505 5.89901C3.74494 5.94065 3.65405 6.0017 3.57761 6.0786C3.4232 6.23351 3.33632 6.44322 3.33594 6.66195C3.33578 6.88045 3.42208 7.09011 3.57596 7.24524Z" fill="#919192"/>
</svg>
