<svg width="20" height="20" viewBox="0 0 20 20" fill="none" xmlns="http://www.w3.org/2000/svg">
<g clip-path="url(#clip0_4733_79791)">
<path d="M9.16602 11.6663V5.83301C9.16602 5.61199 9.25383 5.40004 9.41011 5.24376C9.56639 5.08748 9.77834 4.99967 9.99935 4.99967C10.2204 4.99967 10.4323 5.08748 10.5886 5.24376C10.7449 5.40004 10.8327 5.61199 10.8327 5.83301V9.99967H13.3327C13.5537 9.99967 13.7656 10.0875 13.9219 10.2438C14.0782 10.4 14.166 10.612 14.166 10.833C14.166 11.054 14.0782 11.266 13.9219 11.4223C13.7656 11.5785 13.5537 11.6663 13.3327 11.6663H9.16602Z" fill="#919192"/>
<path fill-rule="evenodd" clip-rule="evenodd" d="M19.1693 9.99967C19.1693 15.0623 15.0652 19.1663 10.0026 19.1663C4.93999 19.1663 0.835938 15.0623 0.835938 9.99967C0.835938 4.93706 4.93999 0.833008 10.0026 0.833008C15.0652 0.833008 19.1693 4.93706 19.1693 9.99967ZM17.5026 9.99967C17.5026 14.1418 14.1447 17.4997 10.0026 17.4997C5.86047 17.4997 2.5026 14.1418 2.5026 9.99967C2.5026 5.85754 5.86047 2.49967 10.0026 2.49967C14.1447 2.49967 17.5026 5.85754 17.5026 9.99967Z" fill="#919192"/>
</g>
<defs>
<clipPath id="clip0_4733_79791">
<rect width="20" height="20" fill="white"/>
</clipPath>
</defs>
</svg>
