<svg width="24" height="24" viewBox="0 0 24 24" fill="none" xmlns="http://www.w3.org/2000/svg">
<path d="M18.188 19.7238L11.988 13.4778L5.75398 19.6618C5.557 19.8464 5.29527 19.946 5.02541 19.9391C4.75554 19.9322 4.49922 19.8193 4.31197 19.6248C4.21499 19.5336 4.13707 19.4241 4.08266 19.3025C4.02825 19.181 3.99841 19.0499 3.99495 18.9168C3.99159 18.7838 4.01464 18.6514 4.0627 18.5273C4.11076 18.4032 4.18289 18.2899 4.27498 18.1938L10.521 11.9938L4.33699 5.75885C4.15246 5.56203 4.05284 5.30043 4.05977 5.03073C4.06669 4.76103 4.17959 4.50492 4.37398 4.31784C4.46509 4.22063 4.57459 4.14247 4.69612 4.08789C4.81765 4.0333 4.94881 4.00338 5.08199 3.99984C5.21526 3.99642 5.3479 4.01948 5.47218 4.06771C5.59647 4.11595 5.70991 4.18839 5.80599 4.28082L12.006 10.5268L18.24 4.34283C18.4369 4.158 18.6986 4.05822 18.9686 4.06515C19.2385 4.07208 19.4948 4.18513 19.682 4.37982C19.7789 4.47105 19.8569 4.58059 19.9113 4.70211C19.9657 4.82363 19.9955 4.95473 19.999 5.08783C20.0023 5.22085 19.9793 5.35323 19.9313 5.47732C19.8832 5.60141 19.811 5.71475 19.7189 5.81082L13.473 12.0108L19.657 18.2458C19.8415 18.4427 19.9411 18.7042 19.9342 18.9739C19.9272 19.2436 19.8143 19.4997 19.62 19.6868C19.5222 19.7868 19.4055 19.8663 19.2768 19.9209C19.1481 19.9755 19.0098 20.004 18.87 20.0048C18.7433 20.0056 18.6178 19.9812 18.5007 19.933C18.3836 19.8847 18.2773 19.8136 18.188 19.7238Z" fill="#606163"/>
</svg>
