<svg width="32" height="32" viewBox="0 0 32 32" fill="none" xmlns="http://www.w3.org/2000/svg">
<rect width="32" height="32" rx="16" fill="#E8E7E5"/>
<path d="M20.1322 21.1528L15.9988 16.9888L11.8428 21.1115C11.7115 21.2345 11.537 21.3009 11.3571 21.2963C11.1772 21.2917 11.0063 21.2164 10.8815 21.0868C10.8168 21.026 10.7649 20.953 10.7286 20.8719C10.6923 20.7909 10.6724 20.7035 10.6701 20.6148C10.6679 20.5261 10.6833 20.4379 10.7153 20.3551C10.7473 20.2724 10.7954 20.1969 10.8568 20.1328L15.0208 15.9995L10.8982 11.8428C10.7751 11.7116 10.7087 11.5372 10.7133 11.3574C10.718 11.1776 10.7932 11.0069 10.9228 10.8821C10.9836 10.8173 11.0566 10.7652 11.1376 10.7288C11.2186 10.6924 11.306 10.6725 11.3948 10.6701C11.4837 10.6679 11.5721 10.6832 11.655 10.7154C11.7378 10.7475 11.8134 10.7958 11.8775 10.8575L16.0108 15.0215L20.1668 10.8988C20.2981 10.7756 20.4726 10.7091 20.6526 10.7137C20.8325 10.7183 21.0034 10.7937 21.1281 10.9235C21.1928 10.9843 21.2448 11.0573 21.2811 11.1383C21.3173 11.2193 21.3372 11.3067 21.3395 11.3955C21.3417 11.4842 21.3264 11.5724 21.2944 11.6551C21.2623 11.7379 21.2142 11.8134 21.1528 11.8775L16.9888 16.0108L21.1115 20.1675C21.2345 20.2987 21.3009 20.4731 21.2963 20.6529C21.2917 20.8327 21.2164 21.0034 21.0868 21.1281C21.0216 21.1948 20.9439 21.2478 20.858 21.2842C20.7722 21.3206 20.68 21.3396 20.5868 21.3401C20.5024 21.3407 20.4187 21.3244 20.3406 21.2922C20.2626 21.2601 20.1917 21.2127 20.1322 21.1528Z" fill="#808082"/>
</svg>
