<svg width="24" height="24" viewBox="0 0 24 24" fill="none" xmlns="http://www.w3.org/2000/svg">
<path d="M19.8813 18.9117H4.53125C4.33234 18.9117 4.14157 18.8327 4.00092 18.6921C3.86027 18.5514 3.78125 18.3607 3.78125 18.1617V10.4688C3.78125 10.2698 3.86027 10.0791 4.00092 9.93842C4.14157 9.79777 4.33234 9.71875 4.53125 9.71875C4.73016 9.71875 4.92093 9.79777 5.06158 9.93842C5.20223 10.0791 5.28125 10.2698 5.28125 10.4688V17.4117H19.1313V10.4688C19.1313 10.2698 19.2103 10.0791 19.3509 9.93842C19.4916 9.79777 19.6823 9.71875 19.8813 9.71875C20.0802 9.71875 20.2709 9.79777 20.4116 9.93842C20.5522 10.0791 20.6313 10.2698 20.6313 10.4688V18.1617C20.6313 18.3607 20.5522 18.5514 20.4116 18.6921C20.2709 18.8327 20.0802 18.9117 19.8813 18.9117Z" fill="#323232"/>
<path d="M8.30078 13.5619C8.03556 13.5619 7.78121 13.4565 7.59367 13.269C7.40614 13.0815 7.30078 12.8271 7.30078 12.5619V5.87891C7.30078 5.61369 7.40614 5.35934 7.59367 5.1718C7.78121 4.98426 8.03556 4.87891 8.30078 4.87891C8.566 4.87891 8.82035 4.98426 9.00789 5.1718C9.19542 5.35934 9.30078 5.61369 9.30078 5.87891V12.5619C9.30078 12.8271 9.19542 13.0815 9.00789 13.269C8.82035 13.4565 8.566 13.5619 8.30078 13.5619Z" fill="#16AB89"/>
<path d="M12.2031 13.5619C11.9379 13.5619 11.6836 13.4565 11.496 13.269C11.3085 13.0815 11.2031 12.8271 11.2031 12.5619V5.87891C11.2031 5.61369 11.3085 5.35934 11.496 5.1718C11.6836 4.98426 11.9379 4.87891 12.2031 4.87891C12.4683 4.87891 12.7227 4.98426 12.9102 5.1718C13.0978 5.35934 13.2031 5.61369 13.2031 5.87891V12.5619C13.2031 12.8271 13.0978 13.0815 12.9102 13.269C12.7227 13.4565 12.4683 13.5619 12.2031 13.5619Z" fill="#16AB89"/>
<path d="M16.1094 13.5619C15.8442 13.5619 15.5898 13.4565 15.4023 13.269C15.2147 13.0815 15.1094 12.8271 15.1094 12.5619V5.87891C15.1094 5.61369 15.2147 5.35934 15.4023 5.1718C15.5898 4.98426 15.8442 4.87891 16.1094 4.87891C16.3746 4.87891 16.6289 4.98426 16.8165 5.1718C17.004 5.35934 17.1094 5.61369 17.1094 5.87891V12.5619C17.1094 12.8271 17.004 13.0815 16.8165 13.269C16.6289 13.4565 16.3746 13.5619 16.1094 13.5619Z" fill="#16AB89"/>
</svg>
