<svg width="21" height="20" viewBox="0 0 21 20" fill="none" xmlns="http://www.w3.org/2000/svg">
<path d="M2.99273 19.167C2.7791 19.1655 2.57469 19.0811 2.42441 18.9321C2.27413 18.7831 2.19019 18.5817 2.19093 18.3721C2.12836 17.7975 2.1863 17.2165 2.36123 16.6648C2.53616 16.113 2.82437 15.6023 3.20806 15.164C3.85985 14.6364 4.65313 14.305 5.49244 14.2096C6.07859 14.111 6.64993 13.941 7.19323 13.7037C7.46821 13.5469 7.68756 13.3109 7.82151 13.0278C7.95545 12.7448 7.99753 12.4281 7.94219 12.1208C7.87766 11.5041 7.66839 10.9105 7.33079 10.3865C6.62165 9.18604 6.23887 7.82686 6.21918 6.43942C6.19937 5.56789 6.37147 4.70243 6.72363 3.90209C7.08055 3.22781 7.61942 2.66273 8.28143 2.26856C8.94344 1.87439 9.70307 1.66629 10.4774 1.66699C11.2518 1.6677 12.0111 1.87717 12.6723 2.27255C13.3336 2.66792 13.8714 3.23398 14.2271 3.90891C14.5795 4.70824 14.7521 5.57278 14.7329 6.44351C14.7091 7.84949 14.3203 9.2263 13.6032 10.4438C13.2776 10.9496 13.0741 11.5219 13.0084 12.1167V12.1249C12.9531 12.4322 12.9953 12.7488 13.1292 13.0319C13.2631 13.315 13.4824 13.5509 13.7574 13.7078C14.3006 13.9447 14.872 14.1138 15.4582 14.2109C15.9695 14.2314 16.4702 14.361 16.9252 14.5909C17.3802 14.8207 17.7786 15.1451 18.0927 15.5415C18.4067 15.938 18.6288 16.3969 18.7436 16.8862C18.8583 17.3756 18.8629 17.8836 18.757 18.3748C18.757 18.5844 18.6721 18.7853 18.5211 18.9335C18.3701 19.0817 18.1654 19.1649 17.9518 19.1649C17.7382 19.1649 17.5334 19.0817 17.3824 18.9335C17.2314 18.7853 17.1465 18.5844 17.1465 18.3748C17.2422 17.6466 17.0563 16.9096 16.6254 16.3092C16.1829 16.0028 15.6666 15.8148 15.1275 15.7639C14.3886 15.6397 13.6703 15.4182 12.9918 15.1053L12.9474 15.0835L12.9056 15.0562C12.3993 14.756 11.9892 14.322 11.7224 13.8039C11.4555 13.2857 11.3426 12.7044 11.3966 12.1263C11.4468 11.2745 11.7113 10.4481 12.1664 9.72118C12.7671 8.72696 13.0963 7.59762 13.1224 6.44215C13.1408 5.80163 13.019 5.16468 12.7653 4.57426C12.537 4.17627 12.2051 3.84492 11.8034 3.61411C11.4018 3.3833 10.9449 3.26131 10.4795 3.26061C10.014 3.25992 9.55673 3.38055 9.15439 3.61017C8.75205 3.83978 8.41911 4.17013 8.18958 4.56744C7.93616 5.15888 7.8148 5.79674 7.8338 6.43806C7.85643 7.57405 8.17971 8.68475 8.77181 9.66119C9.23294 10.4045 9.50283 11.2468 9.55826 12.1153C9.61333 12.6943 9.50093 13.2768 9.23403 13.796C8.96712 14.3152 8.5565 14.7501 8.04922 15.0508L8.00749 15.0781L7.96305 15.0999C7.28582 15.4127 6.56893 15.6351 5.83151 15.7611C5.29116 15.8124 4.77361 16.0003 4.32943 16.3065C3.89831 16.9047 3.71188 17.6399 3.80699 18.3666C3.80811 18.4719 3.7878 18.5764 3.74729 18.6739C3.70678 18.7714 3.64687 18.86 3.57105 18.9345C3.49524 19.009 3.40498 19.068 3.30568 19.1079C3.20638 19.1478 3.10004 19.1679 2.99273 19.167Z" fill="currentColor"/>
</svg>
