<svg width="20" height="20" viewBox="0 0 20 20" fill="none" xmlns="http://www.w3.org/2000/svg">
<path fill-rule="evenodd" clip-rule="evenodd" d="M2.5 3.33366C2.5 2.41319 3.24619 1.66699 4.16667 1.66699H15C16.3807 1.66699 17.5 2.78628 17.5 4.16699V7.50033V12.5003V15.8337C17.5 17.2144 16.3807 18.3337 15 18.3337H4.16667C3.24619 18.3337 2.5 17.5875 2.5 16.667V3.33366ZM15.8333 10.8337V9.16699H14.1667C13.7064 9.16699 13.3333 9.54009 13.3333 10.0003C13.3333 10.4606 13.7064 10.8337 14.1667 10.8337H15.8333ZM15.8333 7.50033H14.1667C12.7859 7.50033 11.6667 8.61962 11.6667 10.0003C11.6667 11.3811 12.7859 12.5003 14.1667 12.5003H15.8333V15.8337C15.8333 16.2939 15.4602 16.667 15 16.667H7.5V3.33366H15C15.4602 3.33366 15.8333 3.70676 15.8333 4.16699V7.50033ZM4.16667 3.33366H5.83333V16.667H4.16667V3.33366Z" fill="#919192"/>
</svg>
