<svg width="20" height="21" viewBox="0 0 20 21" fill="none" xmlns="http://www.w3.org/2000/svg">
<path d="M3.33333 19.2464C3.11232 19.2464 2.90032 19.1586 2.74404 19.0023C2.58776 18.846 2.5 18.634 2.5 18.413V2.60552C2.5 2.38451 2.58776 2.17256 2.74404 2.01628C2.90032 1.86 3.11232 1.77219 3.33333 1.77219L13.6717 1.75886C13.856 1.73019 14.0448 1.75406 14.2162 1.82776C14.3876 1.90145 14.5348 2.022 14.6408 2.17553L17.1817 4.81301C17.515 5.14634 17.5008 5.17136 17.5008 5.63719L17.4958 18.4155C17.4958 18.6365 17.4081 18.8485 17.2518 19.0048C17.0955 19.1611 16.8835 19.2488 16.6625 19.2488L3.33333 19.2464ZM4.16667 3.60553V17.4164C4.16667 17.4606 4.18424 17.503 4.21549 17.5342C4.24675 17.5655 4.28909 17.583 4.33329 17.583H15.6667C15.7109 17.583 15.7532 17.5655 15.7845 17.5342C15.8158 17.503 15.8333 17.4606 15.8333 17.4164V5.93468H14.1667C13.9457 5.93468 13.7337 5.8469 13.5774 5.69062C13.4211 5.53434 13.3333 5.32237 13.3333 5.10135V3.43468H4.33329C4.28909 3.43468 4.24675 3.45226 4.21549 3.48351C4.18424 3.51477 4.16667 3.55716 4.16667 3.60136V3.60553ZM7.08333 13.423C6.97283 13.423 6.86688 13.3791 6.78874 13.301C6.7106 13.2229 6.66667 13.1169 6.66667 13.0063V12.173C6.66667 12.0625 6.7106 11.9565 6.78874 11.8784C6.86688 11.8003 6.97283 11.7563 7.08333 11.7563H12.9167C13.0272 11.7563 13.1331 11.8003 13.2113 11.8784C13.2894 11.9565 13.3333 12.0625 13.3333 12.173V13.0063C13.3333 13.1169 13.2894 13.2229 13.2113 13.301C13.1331 13.3791 13.0272 13.423 12.9167 13.423H7.08333ZM7.08333 10.0955C6.97283 10.0955 6.86688 10.0516 6.78874 9.97348C6.7106 9.89534 6.66667 9.78937 6.66667 9.67886V8.84553C6.66667 8.73502 6.7106 8.62905 6.78874 8.55091C6.86688 8.47277 6.97283 8.42886 7.08333 8.42886H12.9167C13.0272 8.42886 13.1331 8.47277 13.2113 8.55091C13.2894 8.62905 13.3333 8.73502 13.3333 8.84553V9.67886C13.3333 9.78937 13.2894 9.89534 13.2113 9.97348C13.1331 10.0516 13.0272 10.0955 12.9167 10.0955H7.08333Z" fill="#606163"/>
</svg>
