<svg width="15" height="18" viewBox="0 0 15 18" fill="none" xmlns="http://www.w3.org/2000/svg">
<path d="M0.833333 17.7464C0.61232 17.7464 0.400319 17.6586 0.244039 17.5023C0.0877586 17.346 0 17.134 0 16.913V1.10552C0 0.884508 0.0877586 0.672558 0.244039 0.516278C0.400319 0.359998 0.61232 0.272188 0.833333 0.272188L11.1717 0.258862C11.356 0.230188 11.5448 0.254057 11.7162 0.327756C11.8876 0.401454 12.0348 0.521997 12.1408 0.675529L14.6817 3.31301C15.015 3.64634 15.0008 3.67136 15.0008 4.13719L14.9958 16.9155C14.9958 17.1365 14.9081 17.3485 14.7518 17.5048C14.5955 17.6611 14.3835 17.7488 14.1625 17.7488L0.833333 17.7464ZM1.66667 2.10553V15.9164C1.66667 15.9606 1.68424 16.003 1.71549 16.0342C1.74675 16.0655 1.78909 16.083 1.83329 16.083H13.1667C13.2109 16.083 13.2532 16.0655 13.2845 16.0342C13.3158 16.003 13.3333 15.9606 13.3333 15.9164V4.43468H11.6667C11.4457 4.43468 11.2337 4.3469 11.0774 4.19062C10.9211 4.03434 10.8333 3.82237 10.8333 3.60135V1.93468H1.83329C1.78909 1.93468 1.74675 1.95226 1.71549 1.98351C1.68424 2.01477 1.66667 2.05716 1.66667 2.10136V2.10553ZM4.58333 11.923C4.47283 11.923 4.36688 11.8791 4.28874 11.801C4.2106 11.7229 4.16667 11.6169 4.16667 11.5063V10.673C4.16667 10.5625 4.2106 10.4565 4.28874 10.3784C4.36688 10.3003 4.47283 10.2563 4.58333 10.2563H10.4167C10.5272 10.2563 10.6331 10.3003 10.7113 10.3784C10.7894 10.4565 10.8333 10.5625 10.8333 10.673V11.5063C10.8333 11.6169 10.7894 11.7229 10.7113 11.801C10.6331 11.8791 10.5272 11.923 10.4167 11.923H4.58333ZM4.58333 8.59553C4.47283 8.59553 4.36688 8.55162 4.28874 8.47348C4.2106 8.39534 4.16667 8.28937 4.16667 8.17886V7.34553C4.16667 7.23502 4.2106 7.12905 4.28874 7.05091C4.36688 6.97277 4.47283 6.92886 4.58333 6.92886H10.4167C10.5272 6.92886 10.6331 6.97277 10.7113 7.05091C10.7894 7.12905 10.8333 7.23502 10.8333 7.34553V8.17886C10.8333 8.28937 10.7894 8.39534 10.7113 8.47348C10.6331 8.55162 10.5272 8.59553 10.4167 8.59553H4.58333Z" fill="currentColor"/>
</svg>
