<svg width="20" height="21" viewBox="0 0 20 21" fill="none" xmlns="http://www.w3.org/2000/svg">
<path fill-rule="evenodd" clip-rule="evenodd" d="M3.16011 18.5896C3.31639 18.7459 3.52834 18.8337 3.74935 18.8337H16.2493C16.4703 18.8337 16.6823 18.7459 16.8386 18.5896C16.9949 18.4333 17.0826 18.2213 17.0826 18.0003V5.50033L13.771 2.16699H3.74935C3.52834 2.16699 3.31639 2.2548 3.16011 2.41108C3.00383 2.56736 2.91602 2.77931 2.91602 3.00033V18.0003C2.91602 18.2213 3.00383 18.4333 3.16011 18.5896ZM15.4152 17.167H4.58268V3.83366H12.9152V5.50033C12.9152 5.72134 13.003 5.93329 13.1592 6.08957C13.3155 6.24585 13.5275 6.33366 13.7485 6.33366H15.4152V17.167ZM10.8274 9.16699C10.8274 8.74707 10.9943 8.34436 11.2912 8.04743C11.5881 7.7505 11.9908 7.58366 12.4108 7.58366C12.8307 7.58366 13.2334 7.7505 13.5303 8.04743C13.8273 8.34436 13.9941 8.74707 13.9941 9.16699C13.9941 9.58692 13.8273 9.98962 13.5303 10.2866C13.2334 10.5835 12.8307 10.7503 12.4108 10.7503C11.9908 10.7503 11.5881 10.5835 11.2912 10.2866C10.9943 9.98962 10.8274 9.58692 10.8274 9.16699ZM10.7649 15.5003H6.73608C6.59386 15.5004 6.45425 15.4621 6.33194 15.3895C6.20962 15.3169 6.10913 15.2127 6.041 15.0879C5.97292 14.963 5.93974 14.8222 5.9449 14.6801C5.95005 14.538 5.99339 14.3999 6.07033 14.2804L8.18248 10.9941C8.25408 10.8825 8.35258 10.7907 8.46891 10.7271C8.58525 10.6635 8.71568 10.6301 8.84827 10.63C8.98087 10.6301 9.1113 10.6635 9.22763 10.7271C9.34396 10.7907 9.44246 10.8825 9.51407 10.9941L10.8947 13.1419L11.3658 12.4682C11.4387 12.3639 11.5357 12.2787 11.6486 12.2199C11.7614 12.161 11.8869 12.1303 12.0142 12.1302C12.1415 12.1303 12.2668 12.161 12.3797 12.2199C12.4926 12.2787 12.5896 12.3639 12.6625 12.4682L13.9125 14.2543C13.9955 14.3729 14.0443 14.5121 14.0536 14.6565C14.063 14.801 14.0325 14.9452 13.9656 15.0736C13.8987 15.202 13.7978 15.3096 13.674 15.3847C13.5502 15.4598 13.4082 15.4996 13.2634 15.4996L10.7649 15.5003Z" fill="#606163"/>
</svg>
