<svg width="24" height="24" viewBox="0 0 24 24" fill="none" xmlns="http://www.w3.org/2000/svg">
<path fill-rule="evenodd" clip-rule="evenodd" d="M17.281 4.7075C16.4811 4.43928 15.6168 4.43089 14.8117 4.68352C14.0067 4.93616 13.3022 5.43689 12.7989 6.1141C12.6108 6.36718 12.3144 6.51673 11.9991 6.51762C11.6838 6.51851 11.3866 6.37062 11.1971 6.1186C10.8662 5.67862 10.4482 5.31166 9.96899 5.04069C9.48981 4.76971 8.95987 4.60056 8.41232 4.54382C7.86477 4.48707 7.3114 4.54396 6.78685 4.71092C6.26229 4.87787 5.77784 5.1513 5.36383 5.51409C4.9498 5.87688 4.61513 6.32123 4.38073 6.81932C4.14634 7.3174 4.01727 7.85851 4.00162 8.40877C3.98597 8.95903 4.08406 9.5066 4.28976 10.0172C4.37502 10.2288 4.48103 10.4001 4.64299 10.6198C4.68815 10.681 4.7511 10.7628 4.82407 10.8576C4.95194 11.0238 5.11078 11.2302 5.25825 11.4356L12.0439 19.0609L13.1905 17.9313C13.5839 17.5436 14.217 17.5484 14.6046 17.9418C14.9922 18.3352 14.9875 18.9683 14.5941 19.356L12.6981 21.224C12.5029 21.4163 12.2374 21.5201 11.9635 21.5111C11.6896 21.5021 11.4315 21.3811 11.2493 21.1764L3.81307 12.8201C3.76402 12.7741 3.7189 12.7224 3.67868 12.6653C3.52804 12.4514 3.41529 12.306 3.29822 12.155C3.21677 12.0499 3.13321 11.9422 3.03336 11.8068C2.81755 11.5141 2.6065 11.1912 2.43464 10.7645C2.12608 9.99864 1.97895 9.17729 2.00243 8.3519C2.02591 7.52651 2.2195 6.71485 2.57109 5.96772C2.92268 5.22059 3.42471 4.55407 4.04574 4.00988C4.66677 3.4657 5.39344 3.05555 6.18027 2.80512C6.9671 2.55469 7.79715 2.46935 8.61848 2.55447C9.43981 2.63959 10.2347 2.89331 10.9535 3.29977C11.3262 3.51054 11.6742 3.76001 11.9922 4.0434C12.6293 3.46909 13.3857 3.03487 14.2129 2.77528C15.4204 2.39633 16.7169 2.40892 17.9168 2.81126C19.1168 3.21359 20.1588 3.98507 20.8938 5.01536C21.6289 6.04565 22.0193 7.28198 22.0093 8.54755C22.0049 9.09982 21.5536 9.54397 21.0014 9.53959C20.4491 9.53522 20.0049 9.08397 20.0093 8.5317C20.016 7.68799 19.7557 6.86377 19.2657 6.17691C18.7757 5.49005 18.081 4.97573 17.281 4.7075ZM14.1642 8.95704C14.3761 8.63926 14.7504 8.4699 15.129 8.52059C15.5076 8.57129 15.8242 8.83318 15.9449 9.19552L17.2984 13.2558L18.1642 11.957C18.3497 11.6788 18.6619 11.5117 18.9963 11.5117H20.9963C21.5485 11.5117 21.9963 11.9594 21.9963 12.5117C21.9963 13.064 21.5485 13.5117 20.9963 13.5117H19.5314L17.8283 16.0664C17.6165 16.3842 17.2421 16.5536 16.8635 16.5029C16.485 16.4522 16.1684 16.1903 16.0476 15.828L14.6942 11.7677L13.8283 13.0664C13.6429 13.3446 13.3306 13.5117 12.9963 13.5117H10.9963C10.444 13.5117 9.99631 13.064 9.99631 12.5117C9.99631 11.9594 10.444 11.5117 10.9963 11.5117H12.4611L14.1642 8.95704Z" fill="#16AB89"/>
</svg>
