<svg width="18" height="18" viewBox="0 0 18 18" fill="none" xmlns="http://www.w3.org/2000/svg">
<path d="M11.3308 17.3337H3.42271C2.87078 17.3337 2.34145 17.1145 1.95118 16.7243C1.5609 16.3342 1.34164 15.8051 1.34164 15.2533V9.84452C1.34164 9.62382 1.42935 9.41218 1.58547 9.25612C1.74158 9.10007 1.9533 9.01239 2.17407 9.01239C2.39484 9.01239 2.60656 9.10007 2.76267 9.25612C2.91878 9.41218 3.0065 9.62382 3.0065 9.84452V15.2533C3.0065 15.3637 3.05033 15.4695 3.12838 15.5475C3.20644 15.6255 3.31233 15.6694 3.42271 15.6694H8.00107V12.757C7.99083 12.5904 8.01612 12.4235 8.07525 12.2675C8.13437 12.1114 8.22597 11.9696 8.34402 11.8516C8.46208 11.7336 8.60389 11.642 8.76003 11.5829C8.91616 11.5238 9.08307 11.4985 9.24971 11.5088H11.747C11.9136 11.4985 12.0805 11.5238 12.2367 11.5829C12.3928 11.642 12.5346 11.7336 12.6527 11.8516C12.7707 11.9696 12.8623 12.1114 12.9215 12.2675C12.9806 12.4235 13.0059 12.5904 12.9956 12.757V15.6694H14.2443C14.3547 15.6694 14.4606 15.6255 14.5386 15.5475C14.6167 15.4695 14.6605 15.3637 14.6605 15.2533V9.84452C14.6605 9.62382 14.7482 9.41218 14.9043 9.25612C15.0604 9.10007 15.2722 9.01239 15.4929 9.01239C15.7137 9.01239 15.9254 9.10007 16.0815 9.25612C16.2376 9.41218 16.3254 9.62382 16.3254 9.84452V15.2533C16.3254 15.8051 16.1061 16.3342 15.7158 16.7243C15.3255 17.1145 14.7962 17.3337 14.2443 17.3337H11.3308ZM11.3308 15.6694V13.173H9.66592V15.6694H11.3308ZM12.9956 7.97721C12.3745 8.37621 11.6529 8.59091 10.9146 8.59632C10.1762 8.591 9.45459 8.3763 8.8335 7.97721C8.2123 8.37609 7.49072 8.59077 6.75243 8.59632C6.01411 8.59091 5.29249 8.37621 4.67135 7.97721C4.05022 8.37621 3.32859 8.59091 2.59028 8.59632C2.13898 8.58296 1.69935 8.4497 1.31664 8.21023C0.905112 7.9372 0.574476 7.55869 0.359229 7.1143C0.143981 6.66991 0.0520416 6.17592 0.0929981 5.68388C0.307273 4.37523 0.76196 3.11751 1.43406 1.97425C1.67836 1.57269 2.02437 1.24271 2.43715 1.01769C2.84993 0.792675 3.31481 0.680621 3.78482 0.692793C4.04037 0.675318 5.35728 0.666992 7.69724 0.666992C10.3527 0.666992 13.4585 0.678635 13.8514 0.691117C14.2899 0.680469 14.7246 0.775823 15.1183 0.969085C15.5121 1.16235 15.8533 1.44779 16.1131 1.80116C16.963 2.92827 17.4702 4.27624 17.574 5.68388C17.615 6.17592 17.523 6.66991 17.3078 7.1143C17.0925 7.55869 16.7619 7.9372 16.3503 8.21023C15.9677 8.44974 15.528 8.583 15.0767 8.59632C14.3384 8.59082 13.6168 8.37613 12.9956 7.97721ZM13.5783 6.34124C13.9893 6.70373 14.5132 6.91278 15.0609 6.93288C15.2192 6.91806 15.371 6.86305 15.5021 6.7731C15.6517 6.63716 15.7665 6.46724 15.8366 6.27765C15.9067 6.08807 15.9302 5.88443 15.905 5.68388C15.7967 4.68671 15.4401 3.73255 14.8678 2.90872C14.3883 2.372 14.2518 2.36782 13.799 2.35451C13.426 2.34286 10.2886 2.33206 7.69475 2.33206C4.47075 2.33206 3.96712 2.34789 3.88887 2.35288C3.38275 2.38617 3.01649 2.52843 2.91078 2.73563C2.37655 3.65315 1.98631 4.64718 1.75369 5.68302C1.72535 5.89098 1.75105 6.10277 1.82832 6.29792C1.9056 6.49307 2.03186 6.66504 2.1949 6.79728C2.31409 6.86968 2.44755 6.91534 2.58612 6.93121C3.13678 6.91384 3.66436 6.70592 4.07869 6.34292L4.67882 5.74376L5.2532 6.33957C5.66837 6.70539 6.19842 6.91467 6.75161 6.93121C7.30221 6.9135 7.82962 6.70562 8.24413 6.34292L8.8435 5.74376L9.4187 6.33957C9.83383 6.70545 10.3639 6.91474 10.9171 6.93121C11.4679 6.91348 11.9956 6.70562 12.4104 6.34292L13.0098 5.74376L13.5783 6.34124Z" fill="currentColor"/>
</svg>
