

<svg width="46" height="34" viewBox="0 0 46 34" fill="none" xmlns="http://www.w3.org/2000/svg">
<path d="M45 17C45 8.16344 37.8366 1 29 1H1V33H29C37.8366 33 45 25.8366 45 17Z" fill="#16AB89"/>
<path d="M45 17C45 8.16344 37.8366 1 29 1H1V33H29C37.8366 33 45 25.8366 45 17Z" stroke="#16AB89"/>
<path fill-rule="evenodd" clip-rule="evenodd" d="M13 12C13.8284 12 14.5 11.3284 14.5 10.5C14.5 9.67157 13.8284 9 13 9C12.1716 9 11.5 9.67157 11.5 10.5C11.5 11.3284 12.1716 12 13 12ZM18 9.5C17.4477 9.5 17 9.94771 17 10.5C17 11.0523 17.4477 11.5 18 11.5H29C29.5523 11.5 30 11.0523 30 10.5C30 9.94771 29.5523 9.5 29 9.5H18ZM18 16C17.4477 16 17 16.4477 17 17C17 17.5523 17.4477 18 18 18H29C29.5523 18 30 17.5523 30 17C30 16.4477 29.5523 16 29 16H18ZM17 23.5C17 22.9477 17.4477 22.5 18 22.5H29C29.5523 22.5 30 22.9477 30 23.5C30 24.0523 29.5523 24.5 29 24.5H18C17.4477 24.5 17 24.0523 17 23.5ZM14.5 17C14.5 17.8284 13.8284 18.5 13 18.5C12.1716 18.5 11.5 17.8284 11.5 17C11.5 16.1716 12.1716 15.5 13 15.5C13.8284 15.5 14.5 16.1716 14.5 17ZM13 25C13.8284 25 14.5 24.3284 14.5 23.5C14.5 22.6716 13.8284 22 13 22C12.1716 22 11.5 22.6716 11.5 23.5C11.5 24.3284 12.1716 25 13 25Z" fill="white"/>
</svg>
