<svg width="81" height="80" viewBox="0 0 81 80" fill="none" xmlns="http://www.w3.org/2000/svg">
<circle cx="40.5" cy="40" r="40" fill="#1EE6B4" fill-opacity="0.1"/>
<path d="M62.7237 39.9996C62.7237 52.2726 52.7745 62.2218 40.5015 62.2218C28.2285 62.2218 18.2793 52.2726 18.2793 39.9996C18.2793 27.7266 28.2285 17.7773 40.5015 17.7773C52.7745 17.7773 62.7237 27.7266 62.7237 39.9996Z" fill="white"/>
<path fill-rule="evenodd" clip-rule="evenodd" d="M40.5015 58.8885C50.9336 58.8885 59.3904 50.4316 59.3904 39.9996C59.3904 29.5675 50.9336 21.1107 40.5015 21.1107C30.0695 21.1107 21.6126 29.5675 21.6126 39.9996C21.6126 50.4316 30.0695 58.8885 40.5015 58.8885ZM40.5015 62.2218C52.7745 62.2218 62.7237 52.2726 62.7237 39.9996C62.7237 27.7266 52.7745 17.7773 40.5015 17.7773C28.2285 17.7773 18.2793 27.7266 18.2793 39.9996C18.2793 52.2726 28.2285 62.2218 40.5015 62.2218Z" fill="#323232"/>
<path fill-rule="evenodd" clip-rule="evenodd" d="M51.8164 34.5322C52.3815 35.2588 52.2506 36.3059 51.524 36.871L38.1696 47.2578C36.907 48.2398 35.0779 47.9553 34.1733 46.636L29.1263 39.2757C28.6057 38.5166 28.7991 37.4792 29.5583 36.9586C30.3174 36.4381 31.3548 36.6315 31.8754 37.3906L36.5888 44.2644L49.4776 34.2398C50.2042 33.6747 51.2513 33.8056 51.8164 34.5322Z" fill="#1E55E6"/>
<path fill-rule="evenodd" clip-rule="evenodd" d="M51.8164 34.5322C52.3815 35.2588 52.2506 36.3059 51.524 36.871L38.1696 47.2578C36.907 48.2398 35.0779 47.9553 34.1733 46.636L29.1263 39.2757C28.6057 38.5166 28.7991 37.4792 29.5583 36.9586C30.3174 36.4381 31.3548 36.6315 31.8754 37.3906L36.5888 44.2644L49.4776 34.2398C50.2042 33.6747 51.2513 33.8056 51.8164 34.5322Z" fill="#15A380"/>
</svg>
