<svg width="20" height="20" viewBox="0 0 20 20" fill="none" xmlns="http://www.w3.org/2000/svg">
<path d="M3.625 16C3.22718 16 2.84567 15.842 2.56436 15.5607C2.28306 15.2794 2.125 14.8978 2.125 14.5V5.5C2.125 5.10218 2.28306 4.72064 2.56436 4.43934C2.84567 4.15803 3.22718 4 3.625 4H16.375C16.7728 4 17.1543 4.15803 17.4356 4.43934C17.7169 4.72064 17.875 5.10218 17.875 5.5V14.5C17.875 14.8978 17.7169 15.2794 17.4356 15.5607C17.1543 15.842 16.7728 16 16.375 16H3.625ZM3.625 5.875V14.125C3.625 14.2245 3.66454 14.3198 3.73486 14.3902C3.80519 14.4605 3.90054 14.5 4 14.5H16C16.0995 14.5 16.1948 14.4605 16.2651 14.3902C16.3355 14.3198 16.375 14.2245 16.375 14.125V5.875C16.375 5.77554 16.3355 5.68017 16.2651 5.60984C16.1948 5.53951 16.0995 5.5 16 5.5H4C3.90054 5.5 3.80519 5.53951 3.73486 5.60984C3.66454 5.68017 3.625 5.77554 3.625 5.875ZM10.4222 13.0832V12.6662C10.4222 12.1412 10.2812 12.0715 9.98874 11.974C9.93099 11.9552 9.85824 11.9343 9.78174 11.911C9.27549 11.761 8.58176 11.5585 8.34326 10.9908C8.28315 10.8427 8.25795 10.6828 8.26965 10.5235C8.28136 10.3642 8.32964 10.2097 8.41074 10.072C8.91099 9.12776 9.04004 8.32301 8.76404 7.86476C8.67731 7.73762 8.55905 7.63513 8.4209 7.56731C8.28275 7.49948 8.1294 7.46861 7.97577 7.47775C7.82021 7.46893 7.66504 7.50065 7.52542 7.5698C7.3858 7.63895 7.26652 7.74317 7.17926 7.87225C6.90251 8.33725 7.02921 9.1375 7.53696 10.0675C7.63141 10.2164 7.68857 10.386 7.70358 10.5617C7.7186 10.7374 7.69111 10.9142 7.62329 11.077C7.36454 11.65 6.64828 11.8165 5.94778 11.977L5.89597 11.989C5.7802 12.0016 5.67128 12.0499 5.58405 12.127C5.54062 12.3027 5.52492 12.4842 5.53754 12.6648V13.084C5.53767 13.1579 5.52324 13.2311 5.49506 13.2995C5.46687 13.3678 5.42549 13.4299 5.37329 13.4823C5.32102 13.5346 5.25889 13.5761 5.19055 13.6044C5.12221 13.6327 5.04901 13.6473 4.97504 13.6473C4.90107 13.6473 4.82777 13.6327 4.75943 13.6044C4.69109 13.5761 4.62905 13.5346 4.57678 13.4823C4.52458 13.4299 4.4832 13.3678 4.45502 13.2995C4.42683 13.2311 4.4124 13.1579 4.41254 13.084V12.667C4.41254 12.0407 4.40646 11.179 5.64246 10.8933L5.69501 10.8812C5.99059 10.8255 6.2798 10.74 6.55826 10.6262L6.54773 10.6053C6.13748 9.84851 5.54871 8.41374 6.21246 7.29924C6.39638 6.99977 6.65659 6.75454 6.9664 6.58863C7.27621 6.42272 7.62457 6.34211 7.97577 6.35501C8.32396 6.34226 8.66935 6.42168 8.97699 6.58524C9.28463 6.74881 9.54357 6.99071 9.72772 7.28649C10.384 8.37624 9.82225 9.80649 9.418 10.5775C9.63481 10.6879 9.86318 10.774 10.099 10.834C10.1852 10.8595 10.267 10.8835 10.342 10.909C10.7195 11.0107 11.0483 11.2439 11.2692 11.5664C11.4901 11.8889 11.5888 12.2798 11.5472 12.6685V13.0855C11.5472 13.2349 11.4879 13.3782 11.3823 13.4838C11.2766 13.5894 11.1334 13.6487 10.984 13.6487C10.91 13.6487 10.8367 13.634 10.7683 13.6056C10.7 13.5771 10.638 13.5355 10.5858 13.483C10.5335 13.4304 10.4921 13.368 10.4641 13.2994C10.436 13.2308 10.4218 13.1574 10.4222 13.0832ZM13 10.1875C12.926 10.1875 12.8528 10.173 12.7845 10.1447C12.7161 10.1163 12.654 10.0748 12.6017 10.0225C12.5494 9.97023 12.5079 9.90814 12.4796 9.83981C12.4513 9.77147 12.4367 9.69822 12.4368 9.62424C12.4367 9.55027 12.4513 9.47702 12.4796 9.40868C12.5079 9.34035 12.5494 9.27826 12.6017 9.22599C12.6541 9.17379 12.7162 9.13243 12.7845 9.10425C12.8528 9.07607 12.9261 9.06161 13 9.06174H14.5C14.6492 9.06174 14.7922 9.121 14.8977 9.22649C15.0032 9.33198 15.0625 9.47506 15.0625 9.62424C15.0626 9.69816 15.0482 9.77138 15.02 9.83971C14.9918 9.90805 14.9505 9.97017 14.8983 10.0225C14.846 10.0748 14.7839 10.1163 14.7155 10.1447C14.6472 10.173 14.574 10.1875 14.5 10.1875H13ZM13 7.9375C12.9261 7.93763 12.8528 7.9232 12.7845 7.89502C12.7162 7.86684 12.6541 7.82546 12.6017 7.77325C12.5494 7.72098 12.5079 7.6589 12.4796 7.59056C12.4513 7.52222 12.4367 7.44897 12.4368 7.375C12.4367 7.30103 12.4513 7.22778 12.4796 7.15944C12.5079 7.0911 12.5494 7.02902 12.6017 6.97675C12.6541 6.92454 12.7162 6.88316 12.7845 6.85498C12.8528 6.8268 12.9261 6.81237 13 6.8125H14.5C14.6492 6.8125 14.7922 6.87176 14.8977 6.97725C15.0032 7.08274 15.0625 7.22582 15.0625 7.375C15.0625 7.52418 15.0032 7.66726 14.8977 7.77275C14.7922 7.87824 14.6492 7.9375 14.5 7.9375H13Z" fill="currentColor"/>
</svg>
