<svg width="49" height="48" viewBox="0 0 49 48" fill="none" xmlns="http://www.w3.org/2000/svg">
<path d="M10.167 4H6.16699C5.06242 4 4.16699 4.89543 4.16699 6V10" stroke="#606B69" stroke-width="2" stroke-linecap="round"/>
<path d="M38.167 4H42.167C43.2716 4 44.167 4.89543 44.167 6V10" stroke="#606B69" stroke-width="2" stroke-linecap="round"/>
<path d="M10.167 44H6.16699C5.06242 44 4.16699 43.1046 4.16699 42V38" stroke="#606B69" stroke-width="2" stroke-linecap="round"/>
<path d="M38.167 44H42.167C43.2716 44 44.167 43.1046 44.167 42V38" stroke="#606B69" stroke-width="2" stroke-linecap="round"/>
<rect x="8.99902" y="15" width="30" height="18" rx="1" fill="white"/>
<rect x="8.99902" y="15" width="30" height="18" rx="1" stroke="#212127" stroke-width="2"/>
<rect x="13.1631" y="20" width="2" height="8" fill="#212127"/>
<rect x="17.1631" y="20" width="2" height="8" fill="#212127"/>
<rect x="20.1631" y="20" width="2" height="8" fill="#212127"/>
<rect x="23.1631" y="20" width="2" height="8" fill="#212127"/>
<rect x="26.1631" y="20" width="2" height="8" fill="#212127"/>
<rect x="32.999" y="20" width="2" height="8" fill="#212127"/>
<rect x="29.1631" y="20" width="3" height="8" fill="#212127"/>
</svg>
