<svg width="49" height="48" viewBox="0 0 49 48" fill="none" xmlns="http://www.w3.org/2000/svg">
<circle cx="22.5" cy="17" r="12" fill="white" stroke="#212127" stroke-width="2"/>
<circle cx="22.5" cy="17" r="9" fill="#1BD2A9"/>
<mask id="path-3-inside-1_4485_68157" fill="white">
<path fill-rule="evenodd" clip-rule="evenodd" d="M23.5 16C21.2909 16 19.5 17.7909 19.5 20V28L20.4818 42.1386C20.5546 43.1868 21.4262 44 22.477 44H36.5413C37.5845 44 38.4525 43.1982 38.5351 42.1582L39.2134 33.6114C39.3761 31.5617 37.9582 29.7225 35.9345 29.3582L28.3889 28H27.5V20C27.5 17.7909 25.7091 16 23.5 16Z"/>
</mask>
<path fill-rule="evenodd" clip-rule="evenodd" d="M23.5 16C21.2909 16 19.5 17.7909 19.5 20V28L20.4818 42.1386C20.5546 43.1868 21.4262 44 22.477 44H36.5413C37.5845 44 38.4525 43.1982 38.5351 42.1582L39.2134 33.6114C39.3761 31.5617 37.9582 29.7225 35.9345 29.3582L28.3889 28H27.5V20C27.5 17.7909 25.7091 16 23.5 16Z" fill="white"/>
<path d="M19.5 28H17.5V28.0694L17.5048 28.1386L19.5 28ZM20.4818 42.1386L22.477 42L20.4818 42.1386ZM38.5351 42.1582L40.5288 42.3165L38.5351 42.1582ZM39.2134 33.6114L41.2071 33.7696V33.7696L39.2134 33.6114ZM35.9345 29.3582L36.2888 27.3898L35.9345 29.3582ZM28.3889 28L28.7432 26.0316L28.5675 26H28.3889V28ZM27.5 28H25.5V30H27.5V28ZM21.5 20C21.5 18.8954 22.3954 18 23.5 18V14C20.1863 14 17.5 16.6863 17.5 20H21.5ZM21.5 28V20H17.5V28H21.5ZM22.477 42L21.4952 27.8614L17.5048 28.1386L18.4866 42.2771L22.477 42ZM22.477 42H22.477L18.4866 42.2771C18.6322 44.3737 20.3754 46 22.477 46V42ZM36.5413 42H22.477V46H36.5413V42ZM36.5413 42V46C38.6277 46 40.3637 44.3963 40.5288 42.3165L36.5413 42ZM37.2197 33.4532L36.5413 42L40.5288 42.3165L41.2071 33.7696L37.2197 33.4532ZM35.5802 31.3266C36.5921 31.5087 37.301 32.4283 37.2197 33.4532L41.2071 33.7696C41.4511 30.695 39.3243 27.9362 36.2888 27.3898L35.5802 31.3266ZM28.0346 29.9684L35.5802 31.3266L36.2888 27.3898L28.7432 26.0316L28.0346 29.9684ZM27.5 30H28.3889V26H27.5V30ZM25.5 20V28H29.5V20H25.5ZM23.5 18C24.6046 18 25.5 18.8954 25.5 20H29.5C29.5 16.6863 26.8137 14 23.5 14V18Z" fill="#212127" mask="url(#path-3-inside-1_4485_68157)"/>
</svg>
