<svg width="48" height="48" viewBox="0 0 48 48" fill="none" xmlns="http://www.w3.org/2000/svg">
<path d="M41.002 24C41.002 33.3888 33.3908 41 24.002 41C14.6131 41 7.00195 33.3888 7.00195 24C7.00195 14.6112 14.6131 7 24.002 7C33.3908 7 41.002 14.6112 41.002 24Z" fill="white" stroke="#212127" stroke-width="2"/>
<path fill-rule="evenodd" clip-rule="evenodd" d="M34.1861 19.0792C34.6947 19.7331 34.5769 20.6755 33.923 21.1841L21.904 30.5322C20.7677 31.416 19.1215 31.1599 18.3074 29.9726L13.765 23.3484C13.2965 22.6651 13.4706 21.7315 14.1538 21.263C14.837 20.7945 15.7707 20.9685 16.2392 21.6518L20.4813 27.8382L32.0812 18.816C32.7351 18.3074 33.6775 18.4252 34.1861 19.0792Z" fill="#1BD2A9"/>
</svg>
