<svg width="20" height="20" viewBox="0 0 20 20" fill="none" xmlns="http://www.w3.org/2000/svg">
<path d="M10.0002 18.3337C8.352 18.3338 6.74075 17.8452 5.37023 16.9297C3.99971 16.0141 2.93147 14.7127 2.3006 13.19C1.66974 11.6673 1.50459 9.99167 1.82604 8.3751C2.14748 6.75854 2.94109 5.2736 4.10649 4.10808C5.27189 2.94255 6.75675 2.1488 8.37328 1.82718C9.98981 1.50557 11.6654 1.67055 13.1882 2.30125C14.7109 2.93195 16.0125 4.00006 16.9282 5.37049C17.8439 6.74091 18.3327 8.35211 18.3327 10.0003C18.3304 12.2096 17.4518 14.3278 15.8897 15.8901C14.3276 17.4523 12.2095 18.3311 10.0002 18.3337ZM10.0002 2.96427C8.60837 2.9641 7.24774 3.37669 6.09039 4.14985C4.93304 4.92301 4.03097 6.02201 3.49825 7.30788C2.96554 8.59374 2.82611 10.0087 3.0976 11.3738C3.36909 12.7389 4.03931 13.9929 5.0235 14.977C6.00768 15.9612 7.26162 16.6314 8.62673 16.9029C9.99184 17.1744 11.4068 17.035 12.6927 16.5023C13.9785 15.9696 15.0775 15.0675 15.8507 13.9102C16.6239 12.7528 17.0364 11.3922 17.0363 10.0003C17.0342 8.13488 16.2923 6.34643 14.9732 5.02736C13.6541 3.70829 11.8657 2.96633 10.0002 2.96427Z" fill="#16AB89"/>
<path d="M9.01082 13.332C8.7776 13.3319 8.55395 13.242 8.38906 13.0819L5.25741 10.044C5.09251 9.88384 4.99992 9.66671 5 9.44034C5.00008 9.21397 5.09283 8.99691 5.25785 8.8369C5.42287 8.67689 5.64663 8.58704 5.87992 8.58712C6.11321 8.5872 6.33691 8.6772 6.50181 8.83732L9.01082 11.2719L13.488 6.92751C13.5691 6.84601 13.6662 6.781 13.7735 6.73627C13.8808 6.69155 13.9962 6.66801 14.1129 6.66702C14.2297 6.66604 14.3455 6.68763 14.4536 6.73054C14.5617 6.77345 14.6598 6.83681 14.7424 6.91693C14.825 6.99706 14.8903 7.09234 14.9345 7.19721C14.9787 7.30209 15.001 7.41445 15 7.52776C14.999 7.64107 14.9747 7.75305 14.9286 7.85716C14.8825 7.96127 14.8155 8.05544 14.7315 8.13416L9.63082 13.0836C9.46615 13.2435 9.24286 13.3334 9.00994 13.3337" fill="#16AB89"/>
</svg>
