<svg width="16" height="16" viewBox="0 0 16 16" fill="none" xmlns="http://www.w3.org/2000/svg">
<path d="M1.99448 15.3335C1.82357 15.3323 1.66005 15.2647 1.53982 15.1456C1.4196 15.0264 1.35244 14.8653 1.35304 14.6976C1.30298 14.2379 1.34933 13.7731 1.48928 13.3317C1.62922 12.8903 1.85979 12.4817 2.16674 12.1311C2.68817 11.709 3.3228 11.4439 3.99424 11.3675C4.46316 11.2887 4.92023 11.1527 5.35488 10.9629C5.57486 10.8374 5.75034 10.6486 5.8575 10.4222C5.96465 10.1957 5.99831 9.94242 5.95405 9.69654C5.90242 9.20321 5.735 8.72832 5.46493 8.30913C4.89761 7.34873 4.59139 6.26139 4.57564 5.15144C4.55979 4.45422 4.69747 3.76185 4.9792 3.12158C5.26474 2.58215 5.69583 2.13008 6.22544 1.81475C6.75505 1.49941 7.36275 1.33293 7.98224 1.3335C8.60173 1.33406 9.20915 1.50164 9.73816 1.81794C10.2672 2.13424 10.6974 2.58708 10.982 3.12703C11.2639 3.76649 11.402 4.45813 11.3866 5.15471C11.3676 6.2795 11.0565 7.38094 10.4829 8.35494C10.2224 8.75962 10.0596 9.2174 10.007 9.69327V9.69981C9.96277 9.94569 9.9965 10.199 10.1037 10.4254C10.2108 10.6519 10.3862 10.8407 10.6062 10.9662C11.0408 11.1557 11.4979 11.2909 11.9668 11.3686C12.3759 11.385 12.7764 11.4887 13.1404 11.6726C13.5044 11.8564 13.8232 12.116 14.0744 12.4331C14.3257 12.7503 14.5034 13.1174 14.5952 13.5089C14.687 13.9003 14.6906 14.3068 14.6059 14.6998C14.6059 14.8674 14.538 15.0282 14.4172 15.1467C14.2964 15.2652 14.1326 15.3318 13.9617 15.3318C13.7909 15.3318 13.627 15.2652 13.5062 15.1467C13.3854 15.0282 13.3175 14.8674 13.3175 14.6998C13.3941 14.1172 13.2453 13.5276 12.9006 13.0473C12.5466 12.8021 12.1336 12.6517 11.7023 12.611C11.1112 12.5117 10.5365 12.3345 9.99374 12.0842L9.95819 12.0667L9.92481 12.0449C9.51971 11.8047 9.19167 11.4575 8.97819 11.043C8.7647 10.6285 8.67439 10.1634 8.71758 9.7009C8.75769 9.01947 8.9693 8.35842 9.33344 7.77684C9.81394 6.98147 10.0773 6.078 10.0982 5.15362C10.113 4.6412 10.0155 4.13165 9.81252 3.65931C9.62989 3.34092 9.36436 3.07584 9.04305 2.89119C8.72175 2.70654 8.35623 2.60895 7.98387 2.60839C7.61151 2.60784 7.24568 2.70434 6.9238 2.88803C6.60193 3.07173 6.33558 3.33601 6.15196 3.65386C5.94922 4.12701 5.85213 4.6373 5.86733 5.15035C5.88544 6.05914 6.14406 6.9477 6.61774 7.72885C6.98664 8.32354 7.20255 8.99735 7.2469 9.69218C7.29095 10.1554 7.20104 10.6214 6.98751 11.0367C6.77399 11.4521 6.4455 11.8 6.03967 12.0405L6.00629 12.0624L5.97074 12.0798C5.42895 12.3301 4.85544 12.508 4.2655 12.6088C3.83322 12.6498 3.41918 12.8001 3.06384 13.0451C2.71894 13.5237 2.5698 14.1119 2.64589 14.6932C2.64678 14.7774 2.63053 14.861 2.59812 14.939C2.56572 15.017 2.51779 15.0879 2.45713 15.1475C2.39648 15.2071 2.32428 15.2543 2.24484 15.2862C2.16539 15.3181 2.08032 15.3342 1.99448 15.3335Z" fill="#128C71" stroke="#128C71" stroke-width="0.5"/>
</svg>
