<svg width="15" height="14" viewBox="0 0 15 14" fill="none" xmlns="http://www.w3.org/2000/svg">
<path d="M6.83165 13.1182L6.85366 7.63683L1.383 7.61482C1.22521 7.60055 1.07924 7.52512 0.976339 7.40465C0.873436 7.28419 0.821768 7.12825 0.832336 6.97017C0.82019 6.81292 0.870917 6.65729 0.973409 6.53743C1.0759 6.41756 1.22179 6.34325 1.37901 6.33082L6.85964 6.35284L6.88165 0.881502C6.89609 0.723778 6.97159 0.577918 7.09202 0.475048C7.21245 0.372179 7.36826 0.320427 7.52631 0.330822C7.68351 0.318856 7.83906 0.369661 7.95888 0.472119C8.07871 0.574576 8.15307 0.720342 8.16567 0.877494L8.14366 6.35884L13.6143 6.38083C13.7722 6.39494 13.9182 6.47032 14.0212 6.59083C14.1241 6.71134 14.1757 6.86738 14.165 7.0255C14.1771 7.18275 14.1264 7.33838 14.0239 7.45824C13.9214 7.57811 13.7755 7.6524 13.6183 7.66483L8.13768 7.64283L8.11566 13.1142C8.10123 13.2718 8.0257 13.4176 7.90525 13.5204C7.7848 13.6231 7.62898 13.6747 7.47101 13.6642C7.31383 13.6765 7.15816 13.6259 7.03827 13.5235C6.91838 13.4211 6.84406 13.2753 6.83165 13.1182Z" fill="currentColor"/>
</svg>
