<svg width="20" height="20" viewBox="0 0 20 20" fill="none" xmlns="http://www.w3.org/2000/svg">
<path d="M1.66602 10.0003C1.66583 8.539 2.0504 7.10339 2.78103 5.83783C3.49164 4.61325 4.49966 3.58772 5.71183 2.85616C5.85173 2.75887 6.01811 2.7068 6.18852 2.70698C6.40953 2.70698 6.62148 2.79479 6.77776 2.95107C6.93404 3.10735 7.02185 3.3193 7.02185 3.54031C7.02193 3.69391 6.97957 3.84457 6.89942 3.9756C6.81928 4.10662 6.70447 4.21292 6.5677 4.28281C5.59782 4.86749 4.79121 5.68756 4.22268 6.66699C3.63811 7.68053 3.33113 8.83029 3.33268 10.0003C3.33467 11.7678 4.03767 13.4624 5.28749 14.7122C6.5373 15.962 8.23185 16.665 9.99935 16.667C11.7669 16.665 13.4614 15.962 14.7112 14.7122C15.961 13.4624 16.664 11.7678 16.666 10.0003C16.667 8.83015 16.3594 7.6804 15.7743 6.66699C15.2061 5.68639 14.3992 4.86538 13.4285 4.28031C13.2919 4.21049 13.1771 4.10433 13.097 3.97346C13.0168 3.84259 12.9744 3.69209 12.9744 3.53864C12.9744 3.31762 13.0622 3.10567 13.2184 2.94939C13.3747 2.79311 13.5867 2.7053 13.8077 2.7053C13.9781 2.70512 14.1445 2.75719 14.2844 2.85448C15.4977 3.5858 16.5065 4.61207 17.2169 5.83783C17.948 7.10324 18.3328 8.5389 18.3327 10.0003C18.3303 12.2097 17.4515 14.3279 15.8892 15.8902C14.327 17.4525 12.2087 18.3312 9.99935 18.3337C7.78996 18.3312 5.67173 17.4525 4.10946 15.8902C2.54718 14.3279 1.66844 12.2097 1.66602 10.0003ZM9.16602 9.16699V2.50033C9.16602 2.27931 9.25383 2.06736 9.41011 1.91108C9.56639 1.7548 9.77834 1.66699 9.99935 1.66699C10.2204 1.66699 10.4323 1.7548 10.5886 1.91108C10.7449 2.06736 10.8327 2.27931 10.8327 2.50033V9.16699C10.8327 9.38801 10.7449 9.59996 10.5886 9.75624C10.4323 9.91252 10.2204 10.0003 9.99935 10.0003C9.77834 10.0003 9.56639 9.91252 9.41011 9.75624C9.25383 9.59996 9.16602 9.38801 9.16602 9.16699Z" fill="currentColor"/>
</svg>
