<svg width="24" height="24" viewBox="0 0 24 24" fill="none" xmlns="http://www.w3.org/2000/svg">
<path fill-rule="evenodd" clip-rule="evenodd" d="M12.0703 1.59521C10.7571 1.59521 9.45673 1.85387 8.24348 2.35642C7.03022 2.85897 5.92783 3.59556 4.99924 4.52415C4.07066 5.45273 3.33406 6.55512 2.83152 7.76838C2.32897 8.98164 2.07031 10.282 2.07031 11.5952C2.07031 12.9084 2.32897 14.2088 2.83152 15.422C3.33406 16.6353 4.07066 17.7377 4.99924 18.6663C5.92783 19.5949 7.03022 20.3315 8.24348 20.834C9.45673 21.3366 10.7571 21.5952 12.0703 21.5952C13.3835 21.5952 14.6839 21.3366 15.8971 20.834C17.1104 20.3315 18.2128 19.5949 19.1414 18.6663C20.07 17.7377 20.8066 16.6353 21.3091 15.422C21.8117 14.2088 22.0703 12.9084 22.0703 11.5952C22.0703 10.282 21.8117 8.98164 21.3091 7.76838C20.8066 6.55512 20.07 5.45273 19.1414 4.52415C18.2128 3.59556 17.1104 2.85897 15.8971 2.35642C14.6839 1.85387 13.3835 1.59521 12.0703 1.59521ZM9.00884 4.20418C9.97945 3.80214 11.0197 3.59521 12.0703 3.59521C13.1209 3.59521 14.1612 3.80214 15.1318 4.20418C16.1024 4.60622 16.9843 5.19549 17.7272 5.93836C18.47 6.68123 19.0593 7.56314 19.4613 8.53375C19.8634 9.50435 20.0703 10.5446 20.0703 11.5952C20.0703 12.6458 19.8634 13.6861 19.4613 14.6567C19.0593 15.6273 18.47 16.5092 17.7272 17.2521C16.9843 17.9949 16.1024 18.5842 15.1318 18.9863C14.1612 19.3883 13.1209 19.5952 12.0703 19.5952C11.0197 19.5952 9.97945 19.3883 9.00884 18.9863C8.03824 18.5842 7.15633 17.9949 6.41346 17.2521C5.67059 16.5092 5.08131 15.6273 4.67928 14.6567C4.27724 13.6861 4.07031 12.6458 4.07031 11.5952C4.07031 10.5446 4.27724 9.50435 4.67928 8.53375C5.08131 7.56314 5.67059 6.68123 6.41346 5.93836C7.15633 5.19549 8.03824 4.60622 9.00884 4.20418ZM13.0703 16.5952C13.0703 16.0429 12.6226 15.5952 12.0703 15.5952C11.518 15.5952 11.0703 16.0429 11.0703 16.5952V16.6052C11.0703 17.1575 11.518 17.6052 12.0703 17.6052C12.6226 17.6052 13.0703 17.1575 13.0703 16.6052V16.5952ZM12.1516 5.56674C11.5944 5.5652 11.0445 5.69301 10.5451 5.94012C10.0457 6.18723 9.61044 6.54689 9.27365 6.99079C8.93984 7.43077 9.0259 8.05806 9.46588 8.39187C9.90587 8.72569 10.5332 8.63963 10.867 8.19964C11.0167 8.00236 11.2101 7.84251 11.432 7.73268C11.654 7.62285 11.8984 7.56605 12.1461 7.56674C12.3937 7.56742 12.6378 7.62558 12.8592 7.73664C13.0805 7.8477 13.273 8.00862 13.4216 8.20673C13.5702 8.40484 13.6708 8.63474 13.7154 8.87833C13.7601 9.12192 13.7475 9.37254 13.6789 9.61047C13.6102 9.8484 13.4872 10.0671 13.3196 10.2495C13.1544 10.4293 12.9502 10.5688 12.7227 10.6575C12.2183 10.8387 11.7853 11.1773 11.4878 11.6235C11.1872 12.0744 11.0412 12.6108 11.0719 13.1518C11.1032 13.7032 11.5755 14.1249 12.1269 14.0936C12.6783 14.0623 13.1 13.59 13.0687 13.0386C13.0626 12.9304 13.0918 12.8231 13.1519 12.7329C13.212 12.6427 13.2998 12.5745 13.402 12.5386C13.4106 12.5356 13.4191 12.5325 13.4275 12.5292C13.9479 12.3302 14.4151 12.0131 14.7921 11.6029C15.1692 11.1926 15.4459 10.7005 15.6004 10.1651C15.7549 9.6298 15.7831 9.0659 15.6827 8.51783C15.5822 7.96976 15.3559 7.45249 15.0216 7.00673C14.6873 6.56097 14.2541 6.1989 13.7561 5.94903C13.258 5.69915 12.7088 5.56829 12.1516 5.56674Z" fill="#606163"/>
</svg>
