<svg width="24" height="24" viewBox="0 0 24 24" fill="none" xmlns="http://www.w3.org/2000/svg">
<path d="M12.0024 21.6414C10.0953 21.6416 8.23105 21.0763 6.6453 20.0169C5.05955 18.9576 3.82355 17.4518 3.09362 15.69C2.36369 13.9281 2.1726 11.9894 2.54453 10.119C2.91645 8.24855 3.83468 6.53041 5.1831 5.18186C6.53152 3.8333 8.24956 2.91489 10.12 2.54277C11.9903 2.17065 13.9291 2.36153 15.691 3.09128C17.4529 3.82103 18.9588 5.05687 20.0183 6.64251C21.0779 8.22815 21.6434 10.0924 21.6434 11.9994C21.6407 14.5557 20.6242 17.0064 18.8167 18.8141C17.0093 20.6217 14.5586 21.6385 12.0024 21.6414ZM12.0024 3.85843C10.392 3.85823 8.81765 4.33561 7.47855 5.23018C6.13945 6.12476 5.09572 7.39636 4.47934 8.88416C3.86297 10.372 3.70165 12.0091 4.01578 13.5886C4.32991 15.1681 5.10538 16.6189 6.24412 17.7577C7.38286 18.8964 8.83371 19.6719 10.4132 19.986C11.9927 20.3002 13.6299 20.1388 15.1177 19.5225C16.6054 18.9061 17.877 17.8624 18.7716 16.5233C19.6662 15.1842 20.1436 13.6098 20.1434 11.9994C20.141 9.84103 19.2825 7.77172 17.7563 6.2455C16.2301 4.71928 14.1608 3.86081 12.0024 3.85843Z" fill="#323232"/>
<path d="M12.0019 14.7877C11.7366 14.7877 11.4823 14.6824 11.2947 14.4948C11.1072 14.3073 11.0019 14.0529 11.0019 13.7877V13.2567C11.0053 12.6155 11.2172 11.9927 11.6055 11.4824C11.9939 10.9721 12.5377 10.6019 13.1549 10.4277C13.6989 10.2737 13.8699 10.0497 13.8549 9.50572C13.8317 9.26095 13.7206 9.03285 13.5423 8.86355C13.364 8.69426 13.1305 8.59522 12.8849 8.58472C11.1559 8.43572 10.5569 8.72772 10.3529 8.91272C10.2717 8.99569 10.2105 9.09614 10.1741 9.20638C10.1377 9.31661 10.127 9.43371 10.1429 9.54872C10.1429 9.81394 10.0375 10.0683 9.84996 10.2558C9.66242 10.4434 9.40807 10.5487 9.14285 10.5487C8.87764 10.5487 8.62328 10.4434 8.43575 10.2558C8.24821 10.0683 8.14285 9.81394 8.14285 9.54872C8.12704 9.15622 8.19553 8.76489 8.3437 8.40109C8.49188 8.03729 8.7163 7.70947 9.00185 7.43972C10.0689 6.46072 11.8249 6.48872 13.0569 6.59172C13.7952 6.64042 14.4896 6.96029 15.0064 7.48987C15.5233 8.01945 15.8261 8.72137 15.8569 9.46072C15.9072 10.1217 15.7168 10.7786 15.3207 11.3101C14.9246 11.8416 14.3496 12.212 13.7019 12.3527C13.5033 12.4065 13.3277 12.5234 13.2014 12.6857C13.0752 12.8481 13.0051 13.0471 13.0019 13.2527V13.7837C13.0019 14.0489 12.8965 14.3033 12.709 14.4908C12.5214 14.6784 12.2671 14.7837 12.0019 14.7837" fill="#16AB89"/>
<path d="M12.0028 17.9431C11.7319 17.9431 11.467 17.8628 11.2417 17.7122C11.0164 17.5617 10.8408 17.3477 10.7371 17.0974C10.6334 16.8471 10.6063 16.5716 10.6591 16.3059C10.712 16.0401 10.8425 15.796 11.0341 15.6044C11.2257 15.4128 11.4698 15.2823 11.7355 15.2294C12.0013 15.1766 12.2768 15.2037 12.5271 15.3074C12.7774 15.4111 12.9914 15.5867 13.1419 15.812C13.2925 16.0373 13.3728 16.3022 13.3728 16.5731C13.3723 16.9363 13.2278 17.2845 12.971 17.5413C12.7142 17.7981 12.366 17.9426 12.0028 17.9431Z" fill="#16AB89"/>
</svg>
