<svg width="17" height="16" viewBox="0 0 17 16" fill="none" xmlns="http://www.w3.org/2000/svg">
<path d="M7.48279 15.925C5.72255 15.6976 4.08576 14.8963 2.8246 13.645C1.56344 12.3936 0.747649 10.7615 0.50332 8.99995C0.483873 8.82227 0.534355 8.64402 0.643936 8.50298C0.753517 8.36193 0.913667 8.26955 1.09034 8.24487C1.26701 8.22019 1.44641 8.26538 1.5903 8.37101C1.7342 8.47665 1.83148 8.63405 1.86127 8.81029C2.05143 10.1827 2.65927 11.4632 3.60223 12.4766C4.54519 13.4899 5.77719 14.187 7.13013 14.473C8.48307 14.7589 9.89097 14.6199 11.162 14.0744C12.4331 13.529 13.5053 12.6035 14.2324 11.4249H12.1535C11.9716 11.4249 11.7973 11.3529 11.6687 11.2241C11.5401 11.0952 11.4678 10.92 11.4678 10.7378C11.4678 10.5556 11.5401 10.3809 11.6687 10.252C11.7973 10.1232 11.9716 10.0507 12.1535 10.0507H15.8104C15.9922 10.051 16.1666 10.1237 16.2952 10.2525C16.4237 10.3813 16.4958 10.5557 16.4961 10.7378V14.4023C16.4961 14.5845 16.4238 14.7597 16.2952 14.8885C16.1666 15.0174 15.9922 15.0894 15.8104 15.0894C15.6285 15.0894 15.4542 15.0174 15.3256 14.8885C15.197 14.7597 15.1247 14.5845 15.1247 14.4023V12.5701C14.2772 13.7746 13.1171 14.7241 11.77 15.3157C10.4229 15.9074 8.94018 16.1187 7.48189 15.9268L7.48279 15.925ZM15.1319 7.16771C14.9267 5.70555 14.249 4.35123 13.2021 3.31221C12.1551 2.2732 10.7968 1.60701 9.33579 1.41556C8.15572 1.27511 6.9595 1.44545 5.86503 1.9094C4.77056 2.37335 3.81548 3.11506 3.09423 4.06148L3.08708 4.06775C2.96429 4.22098 2.85255 4.38277 2.75318 4.5522H4.83965C5.0215 4.5522 5.19585 4.62464 5.32444 4.7535C5.45303 4.88235 5.52532 5.05706 5.52532 5.23929C5.52532 5.42152 5.45303 5.59623 5.32444 5.72509C5.19585 5.85394 5.0215 5.92638 4.83965 5.92638H1.18274C1.00081 5.92614 0.826512 5.85364 0.69795 5.72464C0.569388 5.59564 0.49707 5.42071 0.49707 5.2384V1.57391C0.49707 1.39168 0.569362 1.21697 0.69795 1.08811C0.826539 0.959258 1.00089 0.886817 1.18274 0.886817C1.36459 0.886817 1.53894 0.959258 1.66753 1.08811C1.79612 1.21697 1.86841 1.39168 1.86841 1.57391V3.40615C1.92509 3.32828 1.98009 3.25601 2.03403 3.19188C2.901 2.06294 4.04647 1.17982 5.35792 0.630052C6.66937 0.0802863 8.10119 -0.117013 9.51212 0.0570285C11.2722 0.2845 12.9089 1.08568 14.1699 2.33705C15.4309 3.58841 16.2466 5.2206 16.4907 6.98207C16.5154 7.1627 16.4675 7.34581 16.3577 7.49113C16.2478 7.63645 16.0848 7.73183 15.9046 7.75684C15.8743 7.76129 15.8437 7.76402 15.8131 7.76444C15.646 7.76532 15.4843 7.70484 15.3586 7.59446C15.233 7.48407 15.152 7.33115 15.131 7.16503L15.1319 7.16771Z" fill="white"/>
</svg>
