<svg width="12" height="15" viewBox="0 0 12 15" fill="none" xmlns="http://www.w3.org/2000/svg">
<path d="M3.33333 14.1668V12.8335H3.66667C3.75507 12.8335 3.83983 12.8686 3.90234 12.9311C3.96486 12.9936 4 13.0784 4 13.1668V13.8335C4 13.9219 3.96486 14.0067 3.90234 14.0692C3.83983 14.1317 3.75507 14.1668 3.66667 14.1668H3.33333ZM0.666667 14.1668C0.489856 14.1668 0.320255 14.0966 0.195231 13.9716C0.0702069 13.8465 0 13.677 0 13.5002V2.16683C0 1.99002 0.0702069 1.82046 0.195231 1.69543C0.320255 1.57041 0.489856 1.50016 0.666667 1.50016H2V2.8335H1.46663C1.43127 2.8335 1.3974 2.84755 1.3724 2.87256C1.34739 2.89756 1.33333 2.93148 1.33333 2.96684V12.7002C1.33333 12.7355 1.34739 12.7694 1.3724 12.7944C1.3974 12.8194 1.43127 12.8335 1.46663 12.8335H3.33333V14.1668H0.666667ZM9.52865 12.6388L7.92863 11.0388C7.45096 11.3404 6.89756 11.5001 6.33268 11.4995C5.53703 11.4995 4.77395 11.1834 4.21134 10.6208C3.64874 10.0582 3.33268 9.29514 3.33268 8.49949C3.33356 7.70411 3.6499 6.94157 4.21232 6.37915C4.77474 5.81673 5.5373 5.50037 6.33268 5.49949C7.12806 5.50037 7.89063 5.81673 8.45304 6.37915C9.01546 6.94157 9.3318 7.70411 9.33268 8.49949C9.33331 9.06447 9.1733 9.61799 8.87134 10.0955L10.4714 11.6955C10.5963 11.8205 10.6665 11.9901 10.6665 12.1668C10.6665 12.3436 10.5963 12.5131 10.4714 12.6382C10.3464 12.7632 10.1768 12.8335 10 12.8335C9.8232 12.8335 9.65364 12.7632 9.52865 12.6382V12.6388ZM4.66667 8.50016C4.66667 8.94219 4.84222 9.36611 5.15479 9.67867C5.46735 9.99123 5.89131 10.1668 6.33333 10.1668C6.77536 10.1668 7.19932 9.99123 7.51188 9.67867C7.82444 9.36611 8 8.94219 8 8.50016C8 8.05814 7.82444 7.63422 7.51188 7.32166C7.19932 7.00909 6.77536 6.8335 6.33333 6.8335C5.89131 6.8335 5.46735 7.00909 5.15479 7.32166C4.84222 7.63422 4.66667 8.05814 4.66667 8.50016ZM11 6.8335C10.9116 6.8335 10.8268 6.79837 10.7643 6.73586C10.7018 6.67335 10.6667 6.58857 10.6667 6.50016V2.96684C10.6667 2.93148 10.6526 2.89756 10.6276 2.87256C10.6026 2.84755 10.5687 2.8335 10.5334 2.8335H9.66667C9.57826 2.8335 9.4935 2.79837 9.43099 2.73586C9.36848 2.67335 9.33333 2.58857 9.33333 2.50016V1.8335C9.33333 1.74509 9.36848 1.66031 9.43099 1.5978C9.4935 1.53529 9.57826 1.50016 9.66667 1.50016H11.3333C11.5101 1.50016 11.6797 1.57041 11.8048 1.69543C11.9298 1.82046 12 1.99002 12 2.16683V6.50016C12 6.58857 11.9649 6.67335 11.9023 6.73586C11.8398 6.79837 11.7551 6.8335 11.6667 6.8335H11ZM4.66667 2.8335C4.48986 2.8335 4.32026 2.76325 4.19523 2.63822C4.07021 2.5132 4 2.34364 4 2.16683V1.50016C4 1.32335 4.07021 1.15379 4.19523 1.02877C4.32026 0.903744 4.48986 0.833496 4.66667 0.833496H7.33333C7.51014 0.833496 7.67974 0.903744 7.80477 1.02877C7.92979 1.15379 8 1.32335 8 1.50016V2.16683C8 2.34364 7.92979 2.5132 7.80477 2.63822C7.67974 2.76325 7.51014 2.8335 7.33333 2.8335H4.66667ZM2 2.8335V1.50016H2.33333C2.42174 1.50016 2.5065 1.53529 2.56901 1.5978C2.63152 1.66031 2.66667 1.74509 2.66667 1.8335V2.50016C2.66667 2.58857 2.63152 2.67335 2.56901 2.73586C2.5065 2.79837 2.42174 2.8335 2.33333 2.8335H2Z" fill="currentColor"/>
</svg>
