<svg width="24" height="24" viewBox="0 0 24 24" fill="none" xmlns="http://www.w3.org/2000/svg">
<path fill-rule="evenodd" clip-rule="evenodd" d="M13.9625 2.91677C14.512 2.36729 15.2572 2.05859 16.0343 2.05859C16.4191 2.05859 16.8001 2.13438 17.1556 2.28163C17.5111 2.42887 17.8341 2.64469 18.1061 2.91677C18.3782 3.18885 18.594 3.51185 18.7413 3.86733C18.7914 3.98841 18.8333 4.11245 18.8667 4.23859H21.3203C21.7345 4.23859 22.0703 4.57438 22.0703 4.98859C22.0703 5.40281 21.7345 5.73859 21.3203 5.73859H18.8667C18.8333 5.86474 18.7914 5.98878 18.7413 6.10986C18.594 6.46534 18.3782 6.78834 18.1061 7.06042C17.8341 7.33249 17.5111 7.54831 17.1556 7.69556C16.8001 7.84281 16.4191 7.91859 16.0343 7.91859C15.2572 7.91859 14.512 7.6099 13.9625 7.06042C13.5936 6.69151 13.3332 6.23437 13.2019 5.73859H2.82031C2.4061 5.73859 2.07031 5.40281 2.07031 4.98859C2.07031 4.57438 2.4061 4.23859 2.82031 4.23859H13.2019C13.3332 3.74282 13.5936 3.28567 13.9625 2.91677ZM16.0343 3.55859C15.6551 3.55859 15.2913 3.70925 15.0231 3.97743C14.755 4.24561 14.6043 4.60933 14.6043 4.98859C14.6043 5.36785 14.755 5.73158 15.0231 5.99976C15.2913 6.26793 15.6551 6.41859 16.0343 6.41859C16.2221 6.41859 16.4081 6.38161 16.5816 6.30974C16.755 6.23788 16.9127 6.13254 17.0455 5.99976C17.1783 5.86697 17.2836 5.70933 17.3555 5.53583C17.4273 5.36234 17.4643 5.17639 17.4643 4.98859C17.4643 4.8008 17.4273 4.61485 17.3555 4.44136C17.2836 4.26786 17.1783 4.11022 17.0455 3.97743C16.9127 3.84464 16.755 3.73931 16.5816 3.66745C16.4081 3.59558 16.2221 3.55859 16.0343 3.55859ZM4.71249 9.52377C5.26197 8.97429 6.00723 8.66559 6.78431 8.66559C7.5614 8.66559 8.30665 8.97429 8.85614 9.52377C9.22504 9.89267 9.48541 10.3498 9.6167 10.8456H21.3203C21.7345 10.8456 22.0703 11.1814 22.0703 11.5956C22.0703 12.0098 21.7345 12.3456 21.3203 12.3456H9.6167C9.48541 12.8414 9.22504 13.2985 8.85614 13.6674C8.30665 14.2169 7.5614 14.5256 6.78431 14.5256C6.00723 14.5256 5.26197 14.2169 4.71249 13.6674C4.34359 13.2985 4.08321 12.8414 3.95192 12.3456H2.82031C2.4061 12.3456 2.07031 12.0098 2.07031 11.5956C2.07031 11.1814 2.4061 10.8456 2.82031 10.8456H3.95192C4.08321 10.3498 4.34359 9.89267 4.71249 9.52377ZM6.78431 10.1656C6.40505 10.1656 6.04133 10.3163 5.77315 10.5844C5.50497 10.8526 5.35431 11.2163 5.35431 11.5956C5.35431 11.9749 5.50497 12.3386 5.77315 12.6068C6.04133 12.8749 6.40505 13.0256 6.78431 13.0256C7.16357 13.0256 7.5273 12.8749 7.79548 12.6068C8.06365 12.3386 8.21431 11.9749 8.21431 11.5956C8.21431 11.2163 8.06365 10.8526 7.79548 10.5844C7.5273 10.3163 7.16357 10.1656 6.78431 10.1656ZM11.3195 16.1308C11.869 15.5813 12.6142 15.2726 13.3913 15.2726C14.1685 15.2726 14.9139 15.5813 15.4635 16.1309C15.8323 16.4997 16.093 16.9566 16.2246 17.4526H21.3203C21.7345 17.4526 22.0703 17.7884 22.0703 18.2026C22.0703 18.6168 21.7345 18.9526 21.3203 18.9526H16.2246C16.0932 19.4488 15.8324 19.9063 15.4635 20.2753C14.9139 20.8248 14.1685 21.1336 13.3913 21.1336C12.6133 21.1336 11.8683 20.8233 11.3195 20.2744C10.9506 19.9055 10.6902 19.4484 10.5589 18.9526H2.82031C2.4061 18.9526 2.07031 18.6168 2.07031 18.2026C2.07031 17.7884 2.4061 17.4526 2.82031 17.4526H10.5589C10.6902 16.9568 10.9506 16.4997 11.3195 16.1308ZM13.3913 16.7726C13.0121 16.7726 12.6483 16.9233 12.3801 17.1914C12.112 17.4596 11.9613 17.8233 11.9613 18.2026C11.9613 18.5819 12.112 18.9456 12.3801 19.2138C12.649 19.4826 13.0129 19.6336 13.3913 19.6336C13.7707 19.6336 14.1346 19.4829 14.4028 19.2146C14.6713 18.9462 14.8223 18.5817 14.8223 18.2026C14.8223 17.8238 14.6715 17.4603 14.4028 17.1916C14.1346 16.9233 13.7707 16.7726 13.3913 16.7726Z" fill="#16AB89"/>
</svg>
