<svg width="21" height="20" viewBox="0 0 21 20" fill="none" xmlns="http://www.w3.org/2000/svg">
<path d="M8.73938 18.3338L8.69189 18.1979L8.48855 17.6213C8.19689 16.753 8.07189 16.4004 7.60022 16.1971C7.12856 15.9937 6.78688 16.1629 5.97355 16.5704L5.41772 16.8421L5.28856 16.903L3.25522 14.8679L3.31605 14.7387C3.41772 14.5279 3.50606 14.3447 3.59356 14.1755C3.98773 13.368 4.15689 13.0363 3.95939 12.5538C3.76189 12.0713 3.43105 11.9638 2.56355 11.6721L1.96688 11.4688L1.83105 11.4213V8.55884L1.96688 8.51215L2.55021 8.3088C3.41105 8.01796 3.76356 7.8921 3.96689 7.42043C4.17022 6.94876 4.00689 6.62634 3.59356 5.7855C3.51023 5.61883 3.41772 5.43962 3.32272 5.23629L3.26188 5.1071L5.29522 3.07208L5.42439 3.13291L5.95272 3.39048C6.75939 3.78965 7.12522 3.97381 7.60689 3.77714C8.08855 3.58047 8.19022 3.2546 8.48189 2.42043C8.54939 2.2371 8.61772 2.02711 8.69855 1.80377L8.74606 1.66797H11.6061L11.6536 1.80377L11.8569 2.37964C12.1486 3.24797 12.2735 3.60713 12.7444 3.80379C13.2152 4.00046 13.5852 3.80377 14.3919 3.42293L14.9277 3.15875L15.0636 3.09792L17.0969 5.13293L17.0361 5.26213L16.7444 5.78459C16.3377 6.60542 16.1685 6.94462 16.3652 7.41962C16.5619 7.89462 16.9211 8.01632 17.7752 8.30798L18.3652 8.51133L18.5011 8.55792V11.4205L18.3652 11.468L17.7819 11.6713C16.9211 11.9622 16.5619 12.0879 16.3652 12.5596C16.1685 13.0313 16.3044 13.2988 16.7519 14.2147L17.0094 14.7438L17.0702 14.8729L15.0369 16.9079L14.9077 16.8471L14.3652 16.5821C13.5386 16.1654 13.186 16.0122 12.7319 16.2022C12.2777 16.3922 12.1427 16.7305 11.8377 17.6188C11.7769 17.7946 11.716 17.9854 11.6344 18.2021L11.6011 18.3313L8.73938 18.3338ZM7.98939 15.1997C8.90605 15.5805 9.18273 16.353 9.50773 17.2488H10.8636C10.9343 16.8197 11.1032 16.4128 11.3572 16.0598C11.6112 15.7067 11.9433 15.4172 12.3277 15.2138C12.7477 15.0781 13.1938 15.0436 13.6296 15.1133C14.0654 15.183 14.4785 15.3547 14.8352 15.6146L15.7702 14.6713C15.5102 14.3116 15.3386 13.8958 15.2691 13.4574C15.1996 13.0191 15.2342 12.5705 15.3702 12.148C15.7644 11.198 16.5502 10.9405 17.4535 10.6688V9.31211C17.021 9.24676 16.6101 9.07998 16.2543 8.82536C15.8986 8.57073 15.6082 8.23555 15.4069 7.84717C15.0211 6.90467 15.3727 6.19218 15.7994 5.33801L14.8377 4.36125C14.4807 4.62622 14.0656 4.80229 13.6269 4.87476C13.1882 4.94722 12.7385 4.91399 12.3152 4.77791C11.461 4.42541 10.9594 3.16383 10.8152 2.743H9.50689C9.50689 2.743 8.95772 4.40551 8.01605 4.79134C7.76219 4.904 7.4871 4.96079 7.20938 4.95797C6.60737 4.89846 6.02497 4.71119 5.50105 4.40875L4.54522 5.31797C4.80473 5.67538 4.97569 6.0893 5.04407 6.52565C5.11245 6.96201 5.07629 7.40829 4.93856 7.82794C4.55189 8.77044 2.89188 9.29299 2.89188 9.29299V10.6496C2.89188 10.6496 4.55272 11.1988 4.93856 12.1421C5.32439 13.0854 4.93856 13.7972 4.54522 14.6522L5.48022 15.5888C5.99899 15.2721 6.58393 15.0796 7.18938 15.0263C7.46453 15.0276 7.73661 15.0843 7.98939 15.193V15.1997ZM7.04689 9.9896C7.04667 9.57729 7.12768 9.16902 7.28528 8.78802C7.44289 8.40702 7.67401 8.06081 7.96544 7.76914C8.25688 7.47748 8.60292 7.24611 8.98379 7.0882C9.36466 6.93028 9.7729 6.84895 10.1852 6.84884C10.5975 6.84895 11.0058 6.93028 11.3867 7.0882C11.7675 7.24611 12.1136 7.47748 12.405 7.76914C12.6964 8.06081 12.9276 8.40702 13.0852 8.78802C13.2428 9.16902 13.3238 9.57729 13.3236 9.9896C13.3222 10.8221 12.991 11.62 12.4025 12.2087C11.8139 12.7974 11.016 13.1289 10.1835 13.1305C9.35142 13.1296 8.5537 12.7983 7.96569 12.2096C7.37767 11.6208 7.0475 10.8225 7.04772 9.99042L7.04689 9.9896ZM8.13023 9.9896C8.13012 10.2594 8.18313 10.5266 8.28626 10.7758C8.38939 11.0251 8.54061 11.2515 8.73128 11.4423C8.92195 11.6332 9.14834 11.7846 9.39752 11.8879C9.6467 11.9912 9.91379 12.0445 10.1835 12.0447C10.4507 12.0445 10.7152 11.9918 10.9619 11.8894C11.2087 11.7871 11.4329 11.6372 11.6217 11.4482C11.8105 11.2593 11.9602 11.035 12.0624 10.7881C12.1645 10.5413 12.217 10.2768 12.2169 10.0096C12.2118 9.46799 11.9972 8.94937 11.6181 8.5624C11.2391 8.17543 10.725 7.95018 10.1835 7.93384C9.91379 7.93406 9.64672 7.98737 9.39758 8.0908C9.14844 8.19423 8.92212 8.34576 8.73152 8.53666C8.54093 8.72756 8.38981 8.95406 8.28678 9.20337C8.18375 9.45268 8.13001 9.71985 8.13023 9.9896Z" fill="currentColor" stroke="currentColor" stroke-width="0.5"/>
</svg>
