<svg width="16" height="16" viewBox="0 0 16 16" fill="none" xmlns="http://www.w3.org/2000/svg">
<path d="M7.99996 2.83333L6.53329 6.48933L2.66662 6.78L5.62662 9.33067L4.70396 13.1667L7.99996 11.0873L11.296 13.1667L10.3733 9.33067L13.3333 6.78L9.46662 6.48867L7.99996 2.83333ZM7.99996 1.5C8.26616 1.50001 8.52626 1.5797 8.74678 1.72881C8.96729 1.87792 9.13813 2.08963 9.23729 2.33667L10.3946 5.222L13.4333 5.45067C13.6962 5.47043 13.9474 5.5677 14.155 5.73018C14.3626 5.89265 14.5174 6.11304 14.5999 6.36349C14.6823 6.61393 14.6886 6.88318 14.618 7.13721C14.5474 7.39124 14.4031 7.61864 14.2033 7.79067L11.86 9.81L12.5933 12.8547C12.6553 13.1126 12.639 13.3831 12.5465 13.6317C12.4539 13.8803 12.2893 14.0956 12.0737 14.2501C11.8581 14.4047 11.6013 14.4914 11.3362 14.4992C11.0711 14.507 10.8096 14.4356 10.5853 14.294L7.99996 12.6633L5.41529 14.294C5.19097 14.4356 4.92953 14.507 4.66439 14.4992C4.39925 14.4914 4.14246 14.4047 3.92687 14.2501C3.71128 14.0956 3.54668 13.8803 3.45412 13.6317C3.36157 13.3831 3.34526 13.1126 3.40729 12.8547L4.14062 9.81L1.79662 7.79067C1.59742 7.6189 1.45347 7.39205 1.38289 7.13867C1.3123 6.88528 1.31824 6.61668 1.39996 6.36667C1.48185 6.11561 1.63645 5.89454 1.84416 5.73146C2.05186 5.56838 2.30331 5.47066 2.56662 5.45067L5.60529 5.222L6.76262 2.33667C6.86178 2.08963 7.03262 1.87792 7.25314 1.72881C7.47365 1.5797 7.73376 1.50001 7.99996 1.5Z" fill="#919192"/>
</svg>
