<svg width="15" height="14" viewBox="0 0 15 14" fill="none" xmlns="http://www.w3.org/2000/svg">
<path d="M10.8301 13.6624H4.16341C3.63298 13.6624 3.12426 13.4517 2.74919 13.0767C2.37411 12.7016 2.16341 12.1929 2.16341 11.6624V3.66244H1.16341C1.07501 3.66244 0.990206 3.62733 0.927694 3.56482C0.865182 3.50231 0.830078 3.41751 0.830078 3.3291V2.66244C0.830078 2.57403 0.865182 2.48923 0.927694 2.42672C0.990206 2.36421 1.07501 2.3291 1.16341 2.3291H4.83008V0.995768C4.83008 0.818957 4.90033 0.649398 5.02535 0.524373C5.15037 0.399349 5.31993 0.329102 5.49675 0.329102H9.49675C9.67356 0.329102 9.84312 0.399349 9.96814 0.524373C10.0932 0.649398 10.1634 0.818957 10.1634 0.995768V2.3291H13.8301C13.9185 2.3291 14.0033 2.36421 14.0658 2.42672C14.1283 2.48923 14.1634 2.57403 14.1634 2.66244V3.3291C14.1634 3.41751 14.1283 3.50231 14.0658 3.56482C14.0033 3.62733 13.9185 3.66244 13.8301 3.66244H12.8301V11.6624C12.8301 12.1929 12.6194 12.7016 12.2443 13.0767C11.8692 13.4517 11.3605 13.6624 10.8301 13.6624ZM9.49675 4.99577V11.6624H10.8301V4.99577H9.49675ZM6.83008 4.99577V11.6624H8.16341V4.99577H6.83008ZM4.16341 4.99577V11.6624H5.49675V4.99577H4.16341ZM6.16341 1.66243V2.3291H8.83008V1.66243H6.16341Z" fill="#FF4DAD"/>
</svg>
