<svg width="40" height="40" viewBox="0 0 40 40" fill="none" xmlns="http://www.w3.org/2000/svg">
<path d="M20.001 37.1673C16.7046 37.1676 13.4821 36.1903 10.7411 34.3591C8.00013 32.5279 5.86372 29.925 4.60206 26.8796C3.3404 23.8342 3.01016 20.483 3.6531 17.2499C4.29604 14.0168 5.88329 11.047 8.21411 8.716C10.5449 6.385 13.5146 4.79752 16.7477 4.15433C19.9807 3.51114 23.3319 3.84112 26.3774 5.10254C29.4229 6.36396 32.026 8.50017 33.8574 11.241C35.6888 13.9819 36.6663 17.2042 36.6663 20.5007C36.6615 24.9192 34.9042 29.1555 31.7799 32.28C28.6557 35.4045 24.4195 37.1622 20.001 37.1673ZM20.001 6.42572C17.2175 6.42546 14.4964 7.25062 12.1819 8.79684C9.86732 10.3431 8.06327 12.5409 6.99783 15.1124C5.93239 17.6839 5.65343 20.5137 6.19621 23.2437C6.73899 25.9738 8.07914 28.4816 10.0472 30.45C12.0152 32.4184 14.5228 33.759 17.2528 34.3023C19.9827 34.8456 22.8125 34.5672 25.3842 33.5022C27.9559 32.4372 30.1541 30.6336 31.7008 28.3193C33.2474 26.0051 34.0731 23.2842 34.0733 20.5007C34.0695 16.7694 32.5858 13.1919 29.9476 10.5533C27.3094 7.91459 23.7323 6.43018 20.001 6.42572Z" fill="currentColor"/>
<path d="M21.3049 10.9381C21.1837 10.7996 21.0383 10.6893 20.8775 10.6141C20.7166 10.5388 20.5436 10.5 20.3688 10.5H19.6323C19.4578 10.4999 19.2851 10.5384 19.1244 10.6134C18.9637 10.6884 18.8184 10.7982 18.6972 10.9363C18.576 11.0744 18.4814 11.2379 18.4189 11.4171C18.3565 11.5964 18.3276 11.7876 18.3338 11.9794L18.703 22.4606C18.716 22.8295 18.8584 23.1785 19.1003 23.4345C19.3423 23.6904 19.6649 23.8333 20.0006 23.8333C20.3362 23.8333 20.6589 23.6904 20.9008 23.4345C21.1427 23.1785 21.2851 22.8295 21.2981 22.4606L21.6653 11.9794C21.6722 11.7874 21.6438 11.5957 21.5817 11.4161C21.5196 11.2364 21.4251 11.0724 21.3039 10.9339" fill="currentColor"/>
<path d="M19.9997 28.8333C19.67 28.8333 19.3478 28.7356 19.0737 28.5524C18.7996 28.3693 18.586 28.109 18.4599 27.8045C18.3337 27.4999 18.3007 27.1648 18.365 26.8415C18.4293 26.5182 18.5881 26.2212 18.8212 25.9882C19.0543 25.7551 19.3512 25.5963 19.6745 25.532C19.9978 25.4677 20.3329 25.5007 20.6375 25.6269C20.942 25.753 21.2023 25.9666 21.3855 26.2407C21.5686 26.5148 21.6663 26.837 21.6663 27.1667C21.6659 27.6085 21.4901 28.0322 21.1777 28.3446C20.8652 28.6571 20.4416 28.8329 19.9997 28.8333Z" fill="currentColor"/>
</svg>
