<svg width="24" height="24" viewBox="0 0 24 24" fill="none" xmlns="http://www.w3.org/2000/svg">
<path fill-rule="evenodd" clip-rule="evenodd" d="M12 23C18.0751 23 23 18.0751 23 12C23 5.92487 18.0751 1 12 1C5.92487 1 1 5.92487 1 12C1 18.0751 5.92487 23 12 23ZM10.7407 18.0001V15.9319H13.2747V18.0001H10.7407ZM10.7236 7.84113C10.6766 6.96613 10.6237 6.34606 10.5667 6.00006H13.4336C13.3866 6.37406 13.3146 7.14713 13.2766 7.84113L13.0327 12.9742L13.0308 13.0218C12.9977 13.8493 12.9976 13.853 12.9976 14.0601C12.9949 14.2723 13.0068 14.4845 13.0327 14.6951H10.9866C10.9891 14.6548 10.9922 14.6172 10.9951 14.5818C11.0001 14.5198 11.0046 14.4648 11.0046 14.4151V14.4022C11.0052 14.393 11.0058 14.384 11.0064 14.3752C11.0145 14.2488 11.0208 14.1525 11.0208 14.045C11.0208 13.8829 11.0205 13.8793 10.9712 13.0365L10.9675 12.9742L10.7236 7.84113Z" fill="#FF4DAD"/>
</svg>
