<svg width="20" height="20" viewBox="0 0 20 20" fill="none" xmlns="http://www.w3.org/2000/svg">
<g clip-path="url(#clip0_4733_79795)">
<path d="M8.95125 14.9997V13.2763H11.0629V14.9997H8.95125Z" fill="#FF8549"/>
<path d="M8.93701 6.53395C8.89784 5.80478 8.85369 5.28806 8.80619 4.99972H11.1953C11.1561 5.31139 11.0962 5.95561 11.0645 6.53395L10.8612 10.8115L10.8597 10.8512C10.8321 11.5407 10.8319 11.5439 10.8319 11.7164C10.8297 11.8933 10.8396 12.0701 10.8612 12.2456H9.15613C9.15824 12.212 9.16081 12.1807 9.16321 12.1512C9.16744 12.0995 9.17118 12.0537 9.17118 12.0123V12.0015C9.17167 11.9939 9.17216 11.9864 9.17263 11.979C9.17943 11.8736 9.18461 11.7934 9.18461 11.7038C9.18461 11.5687 9.18443 11.5657 9.1433 10.8634L9.14026 10.8115L8.93701 6.53395Z" fill="#FF8549"/>
<path fill-rule="evenodd" clip-rule="evenodd" d="M19.1673 9.99967C19.1673 15.0623 15.0633 19.1663 10.0007 19.1663C4.93804 19.1663 0.833984 15.0623 0.833984 9.99967C0.833984 4.93706 4.93804 0.833008 10.0007 0.833008C15.0633 0.833008 19.1673 4.93706 19.1673 9.99967ZM17.5006 9.99967C17.5006 14.1418 14.1428 17.4997 10.0007 17.4997C5.85851 17.4997 2.50065 14.1418 2.50065 9.99967C2.50065 5.85754 5.85851 2.49967 10.0007 2.49967C14.1428 2.49967 17.5006 5.85754 17.5006 9.99967Z" fill="#FF8549"/>
</g>
<defs>
<clipPath id="clip0_4733_79795">
<rect width="20" height="20" fill="white"/>
</clipPath>
</defs>
</svg>
